<?xml version="1.0" encoding="iso-8859-1"?>
<!-- Generator: Adobe Illustrator 19.0.0, SVG Export Plug-In . SVG Version: 6.00 Build 0)  -->
<svg version="1.1" id="Capa_1" xmlns="http://www.w3.org/2000/svg" xmlns:xlink="http://www.w3.org/1999/xlink" x="0px" y="0px"
	 viewBox="0 0 512 512" style="enable-background:new 0 0 512 512;" xml:space="preserve">
<g>
	<g>
		<g>
			<polygon points="173.714,69.111 118.857,41.682 118.857,112.667 173.714,140.096 			"/>
			<path d="M265.143,328.603c-16.63,0.048-31.13,11.323-35.273,27.429h70.546C296.272,339.926,281.773,328.651,265.143,328.603z"/>
			<path d="M388.036,346.889c-4.481-0.001-8.302-3.247-9.027-7.67c-1.131-6.858-2.861-13.604-5.17-20.161
				c-1.427-4.1,0.221-8.638,3.946-10.866l19.875-11.857c-3.838-8.667-8.474-16.959-13.848-24.768l-19.598,11.652
				c-3.893,2.323-8.9,1.437-11.759-2.08c-4.332-5.336-9.134-10.272-14.348-14.75c-3.291-2.846-4.127-7.614-2-11.41l11.607-20.634
				c-7.475-5.47-15.451-10.22-23.821-14.188L312.5,240.363c-2.199,3.917-6.924,5.649-11.134,4.08
				c-6.323-2.35-12.847-4.119-19.491-5.286c-4.384-0.758-7.587-4.56-7.589-9.009v-23.679c-9.123-0.857-18.306-0.857-27.429,0v23.679
				c-0.003,4.449-3.206,8.251-7.589,9.009c-6.644,1.167-13.168,2.936-19.491,5.286c-4.21,1.561-8.93-0.168-11.134-4.08
				l-11.393-20.206c-8.37,3.968-16.346,8.718-23.821,14.188l11.607,20.634c2.127,3.796,1.291,8.564-2,11.41
				c-5.214,4.478-10.016,9.414-14.348,14.75c-2.865,3.508-7.865,4.392-11.759,2.08l-19.598-11.652
				c-5.374,7.809-10.01,16.101-13.848,24.768l19.875,11.857c3.726,2.228,5.374,6.766,3.946,10.866
				c-2.308,6.556-4.038,13.302-5.17,20.161c-0.724,4.423-4.545,7.669-9.027,7.67h-22.75c-0.273,2.972-0.31,6.074-0.409,9.143
				h101.164c4.431-26.387,27.274-45.714,54.031-45.714s49.6,19.327,54.031,45.714h92.021c-0.099-3.069-0.136-6.171-0.409-9.143
				H388.036z"/>
			<path d="M0,493.175v9.143c0.003,5.048,4.095,9.139,9.143,9.143h493.714c5.048-0.003,9.139-4.095,9.143-9.143v-9.143H0z"/>
			<polygon points="235.557,26.889 182.857,0.539 130.158,26.889 182.857,53.239 			"/>
			<polygon points="192,140.096 246.857,112.667 246.857,41.682 192,69.111 			"/>
			<polygon points="338.286,140.096 393.143,112.667 393.143,41.682 338.286,69.111 			"/>
			<path d="M448,173.175c-0.003-5.048-4.095-9.139-9.143-9.143H73.143c-5.048,0.003-9.14,4.095-9.143,9.143v219.429h384V173.175z
				 M429.714,374.318H82.286c-5.049,0-9.143-4.093-9.143-9.143s4.093-9.143,9.143-9.143h9.327c0.145-6.57,0.677-13.126,1.593-19.634
				c0.669-4.479,4.516-7.795,9.045-7.795h23.321c0.634-2.813,1.36-5.622,2.179-8.429l-20.438-12.197
				c-3.827-2.285-5.448-6.996-3.839-11.152c5.944-15.405,14.078-29.872,24.152-42.955c2.826-3.652,7.931-4.624,11.902-2.267
				l20.161,11.991c1.893-2.063,3.83-4.054,5.839-5.991l-11.902-21.169c-2.171-3.875-1.249-8.749,2.188-11.563
				c12.642-10.323,26.749-18.709,41.857-24.884c4.267-1.75,9.169-0.051,11.438,3.964l11.75,20.839
				c2.571-0.777,5.143-1.482,7.714-2.089v-24.295c0-4.502,3.276-8.335,7.723-9.036c16.093-2.429,32.46-2.429,48.554,0
				c4.447,0.701,7.723,4.534,7.723,9.036v24.295c2.571,0.607,5.143,1.313,7.714,2.089l11.75-20.839
				c2.264-4.02,7.171-5.721,11.438-3.964c15.108,6.175,29.215,14.561,41.857,24.884c3.436,2.814,4.358,7.688,2.188,11.563
				l-11.902,21.17c2.009,1.937,3.946,3.928,5.839,5.991l20.161-11.991c3.97-2.359,9.077-1.387,11.902,2.267
				c10.074,13.083,18.208,27.55,24.152,42.955c1.609,4.156-0.013,8.867-3.839,11.152l-20.438,12.197
				c0.821,2.804,1.548,5.613,2.179,8.429h23.321c4.529,0,8.376,3.315,9.045,7.795c0.916,6.508,1.448,13.064,1.593,19.634h0.184
				c5.049,0,9.143,4.093,9.143,9.143S434.764,374.318,429.714,374.318z"/>
			<path d="M452.67,410.889H59.33l-49.777,64h492.893L452.67,410.889z M73.143,456.603H64c-5.049,0-9.143-4.093-9.143-9.143
				c0-5.049,4.093-9.143,9.143-9.143h9.143c5.049,0,9.143,4.093,9.143,9.143C82.286,452.51,78.192,456.603,73.143,456.603z
				 M402.286,456.603H109.714c-5.049,0-9.143-4.093-9.143-9.143c0-5.049,4.093-9.143,9.143-9.143h292.571
				c5.049,0,9.143,4.093,9.143,9.143C411.429,452.51,407.335,456.603,402.286,456.603z M448,456.603h-9.143
				c-5.049,0-9.143-4.093-9.143-9.143c0-5.049,4.093-9.143,9.143-9.143H448c5.049,0,9.143,4.093,9.143,9.143
				C457.143,452.51,453.049,456.603,448,456.603z"/>
			<polygon points="381.842,26.889 329.143,0.539 276.443,26.889 329.143,53.239 			"/>
			<polygon points="320,69.111 265.143,41.682 265.143,112.667 320,140.096 			"/>
		</g>
	</g>
</g>
<g>
</g>
<g>
</g>
<g>
</g>
<g>
</g>
<g>
</g>
<g>
</g>
<g>
</g>
<g>
</g>
<g>
</g>
<g>
</g>
<g>
</g>
<g>
</g>
<g>
</g>
<g>
</g>
<g>
</g>
</svg>
