<svg xmlns="http://www.w3.org/2000/svg" viewBox="0 0 512 512"><path d="M166.416 30.945V90.96H205.8V30.945h-39.384zm24.381 45.011h-9.377V45.949h9.377v30.007zM308.95 30.945V90.96h39.385V30.945H308.95zm24.381 45.011h-9.377V45.949h9.377v30.007zM46.886 218.491v60.015h39.385v-60.015H46.886zm24.381 45.011H61.89v-30.007h9.377v30.007zm166.416-45.011v60.015h39.385v-60.015h-39.385zm24.381 45.011h-9.377v-30.007h9.377v30.007zm69.892 142.535v60.015h39.385v-60.015h-39.385zm24.381 45.011h-9.377V421.04h9.377v30.008zm73.143-232.557v60.015h39.385v-60.015H429.48zm24.381 45.011h-9.377v-30.007h9.377v30.007z"/><path d="M512 323.516V188.484H384.469v75.018h-64.266v-75.018H264.44v-22.505h37.509v-30.007h89.522V.938H263.939v135.033h23.006v15.004H226.93v-15.004h22.005V.938h-127.53v135.033h90.522v30.007h37.509v22.505h-56.764v75.018h-63.265v-75.018H1.875v135.033h127.531v-45.011h22.505v60.015H91.897v37.509H0v135.033h127.531V376.029h-20.63v-22.505h45.011v15.004h15.004v-15.004h135.033v22.505h-15.004v135.033h127.531V376.029h-97.524V338.52H166.916v-60.015h25.756v45.011h127.531v-45.011h64.266v45.011H512zm-45.011-15.003H429.48v-7.502h37.509v7.502zm-67.516-105.026h97.524v105.026h-15.004v-22.505h-67.516v22.505h-15.004V203.487zm-53.013-82.52h-37.51v-7.502h37.509v7.502zm-67.517 0V15.941h97.524v105.026h-15.004V98.462h-67.516v22.505h-15.004zm-75.018 0h-37.509v-7.502h37.509v7.502zm-52.513-22.505v22.505h-15.004V15.941h97.524v105.026h-15.004V98.462h-67.516zM84.396 308.513h-37.51v-7.502h37.509v7.502zm30.007 0H99.399v-22.505H31.883v22.505H16.879V203.487h97.524v105.026zM82.52 496.059H45.011v-7.502H82.52v7.502zm30.007-105.026v105.026H97.524v-22.505H30.007v22.505H15.004V391.033h97.523zm256.938 105.026h-37.509v-7.502h37.509v7.502zm30.008-105.026v105.026h-15.004v-22.505h-67.516v22.505h-15.004V391.033h97.524zm-124.281-82.52h-37.509v-7.502h37.509v7.502zm30.008 0h-15.004v-22.505H222.68v22.505h-15.004V203.487H305.2v105.026z"/><path d="M45.011 406.037v60.015h39.385v-60.015H45.011zm24.381 45.011h-9.377V421.04h9.377v30.008zm118.154-45.011v60.015h39.385v-60.015h-39.385zm24.381 45.011h-9.377V421.04h9.377v30.008z"/><path d="M142.535 376.029v135.033h127.531V376.029H142.535zm82.52 120.03h-37.509v-7.502h37.509v7.502zm30.007 0h-15.004v-22.505h-67.516v22.505h-15.004V391.033h97.524v105.026z"/></svg>