<?xml version="1.0" encoding="iso-8859-1"?>
<!-- Generator: Adobe Illustrator 19.0.0, SVG Export Plug-In . SVG Version: 6.00 Build 0)  -->
<svg version="1.1" id="Layer_1" xmlns="http://www.w3.org/2000/svg" xmlns:xlink="http://www.w3.org/1999/xlink" x="0px" y="0px"
	 viewBox="0 0 512 512" style="enable-background:new 0 0 512 512;" xml:space="preserve">
<g transform="translate(0 -1)">
	<g>
		<g>
			<path d="M119.467,154.6c23.526,0,42.667-19.14,42.667-42.667c0-1.237-0.265-2.406-0.367-3.618l79.701-50.714
				c5.811,16.666,21.513,28.732,40.132,28.732c20.113,0,36.924-14.037,41.404-32.802l86.724,14.456
				c-0.009,0.435-0.128,0.836-0.128,1.28c0,23.526,19.14,42.667,42.667,42.667c23.526,0,42.667-19.14,42.667-42.667
				c0-23.526-19.14-42.667-42.667-42.667c-17.101,0-31.787,10.18-38.579,24.738l-90.163-15.027C320.017,16.292,302.609,1,281.6,1
				c-21.811,0-39.646,16.512-42.163,37.658l-82.825,52.71c-7.287-13.107-21.112-22.101-37.146-22.101
				c-23.526,0-42.667,19.14-42.667,42.667C76.8,135.46,95.94,154.6,119.467,154.6z"/>
			<path d="M503.467,478.867h-8.533v-8.533c0-4.719-3.814-8.533-8.533-8.533s-8.533,3.814-8.533,8.533v8.533h-25.6v-8.533
				c0-4.719-3.814-8.533-8.533-8.533c-4.719,0-8.533,3.814-8.533,8.533v8.533h-25.6v-8.533c0-4.719-3.814-8.533-8.533-8.533
				c-4.719,0-8.533,3.814-8.533,8.533v8.533h-25.6v-8.533c0-4.719-3.814-8.533-8.533-8.533s-8.533,3.814-8.533,8.533v8.533h-25.6
				v-8.533c0-4.719-3.814-8.533-8.533-8.533s-8.533,3.814-8.533,8.533v8.533h-25.6v-8.533c0-4.719-3.814-8.533-8.533-8.533
				s-8.533,3.814-8.533,8.533v8.533h-25.6v-8.533c0-4.719-3.814-8.533-8.533-8.533s-8.533,3.814-8.533,8.533v8.533h-25.6v-8.533
				c0-4.719-3.814-8.533-8.533-8.533s-8.533,3.814-8.533,8.533v8.533h-25.6v-8.533c0-4.719-3.814-8.533-8.533-8.533
				s-8.533,3.814-8.533,8.533v8.533h-25.6v-8.533c0-4.719-3.814-8.533-8.533-8.533s-8.533,3.814-8.533,8.533v8.533h-25.6v-8.533
				c0-4.719-3.814-8.533-8.533-8.533s-8.533,3.814-8.533,8.533v8.533H34.133v-51.2h8.533c4.719,0,8.533-3.814,8.533-8.533
				s-3.814-8.533-8.533-8.533h-8.533V385h8.533c4.719,0,8.533-3.814,8.533-8.533s-3.814-8.533-8.533-8.533h-8.533v-25.6h8.533
				c4.719,0,8.533-3.814,8.533-8.533s-3.814-8.533-8.533-8.533h-8.533v-25.6h8.533c4.719,0,8.533-3.814,8.533-8.533
				c0-4.719-3.814-8.533-8.533-8.533h-8.533V257h8.533c4.719,0,8.533-3.814,8.533-8.533s-3.814-8.533-8.533-8.533h-8.533v-25.6
				h8.533c4.719,0,8.533-3.814,8.533-8.533s-3.814-8.533-8.533-8.533h-8.533v-25.6h8.533c4.719,0,8.533-3.814,8.533-8.533
				s-3.814-8.533-8.533-8.533h-8.533V129h8.533c4.719,0,8.533-3.814,8.533-8.533s-3.814-8.533-8.533-8.533h-8.533v-25.6h8.533
				c4.719,0,8.533-3.814,8.533-8.533s-3.814-8.533-8.533-8.533h-8.533v-25.6h8.533c4.719,0,8.533-3.814,8.533-8.533
				S47.386,26.6,42.667,26.6h-8.533V9.533C34.133,4.814,30.319,1,25.6,1s-8.533,3.814-8.533,8.533V26.6H8.533
				C3.814,26.6,0,30.414,0,35.133s3.814,8.533,8.533,8.533h8.533v25.6H8.533C3.814,69.267,0,73.081,0,77.8s3.814,8.533,8.533,8.533
				h8.533v25.6H8.533c-4.719,0-8.533,3.814-8.533,8.533S3.814,129,8.533,129h8.533v25.6H8.533C3.814,154.6,0,158.414,0,163.133
				s3.814,8.533,8.533,8.533h8.533v25.6H8.533C3.814,197.267,0,201.081,0,205.8s3.814,8.533,8.533,8.533h8.533v25.6H8.533
				c-4.719,0-8.533,3.814-8.533,8.533S3.814,257,8.533,257h8.533v25.6H8.533C3.814,282.6,0,286.414,0,291.133
				c0,4.719,3.814,8.533,8.533,8.533h8.533v25.6H8.533C3.814,325.267,0,329.081,0,333.8s3.814,8.533,8.533,8.533h8.533v25.6H8.533
				c-4.719,0-8.533,3.814-8.533,8.533S3.814,385,8.533,385h8.533v25.6H8.533C3.814,410.6,0,414.414,0,419.133
				s3.814,8.533,8.533,8.533h8.533v25.6H8.533C3.814,453.267,0,457.081,0,461.8c0,4.719,3.814,8.533,8.533,8.533h8.533V487.4
				c0,4.719,3.814,8.533,8.533,8.533h25.6v8.533c0,4.719,3.814,8.533,8.533,8.533s8.533-3.814,8.533-8.533v-8.533h25.6v8.533
				c0,4.719,3.814,8.533,8.533,8.533s8.533-3.814,8.533-8.533v-8.533h25.6v8.533c0,4.719,3.814,8.533,8.533,8.533
				s8.533-3.814,8.533-8.533v-8.533h25.6v8.533c0,4.719,3.814,8.533,8.533,8.533s8.533-3.814,8.533-8.533v-8.533h25.6v8.533
				c0,4.719,3.814,8.533,8.533,8.533s8.533-3.814,8.533-8.533v-8.533h25.6v8.533c0,4.719,3.814,8.533,8.533,8.533
				s8.533-3.814,8.533-8.533v-8.533h25.6v8.533c0,4.719,3.814,8.533,8.533,8.533s8.533-3.814,8.533-8.533v-8.533h25.6v8.533
				c0,4.719,3.814,8.533,8.533,8.533s8.533-3.814,8.533-8.533v-8.533h25.6v8.533c0,4.719,3.814,8.533,8.533,8.533
				c4.719,0,8.533-3.814,8.533-8.533v-8.533h25.6v8.533c0,4.719,3.814,8.533,8.533,8.533c4.719,0,8.533-3.814,8.533-8.533v-8.533
				h25.6v8.533c0,4.719,3.814,8.533,8.533,8.533s8.533-3.814,8.533-8.533v-8.533h8.533c4.719,0,8.533-3.814,8.533-8.533
				S508.186,478.867,503.467,478.867z"/>
			<path d="M153.6,332.2c0-8.525-6.938-15.462-15.462-15.462H83.729c-8.525,0-15.462,6.938-15.462,15.462v104.004H153.6V332.2z"/>
			<path d="M194.667,163.133c-8.525,0-15.462,6.938-15.462,15.462V436.2h85.333V178.596c0-8.525-6.946-15.462-15.471-15.462H194.667
				z"/>
			<path d="M305.6,248.467c-8.525,0-15.462,6.938-15.462,15.462V436.2h85.333V263.929c0-8.525-6.946-15.462-15.471-15.462H305.6z"/>
			<path d="M470.933,146.067h-54.4c-8.525,0-15.471,6.938-15.471,15.462V436.2h85.333V161.529
				C486.396,153.004,479.458,146.067,470.933,146.067z"/>
		</g>
	</g>
</g>
<g>
</g>
<g>
</g>
<g>
</g>
<g>
</g>
<g>
</g>
<g>
</g>
<g>
</g>
<g>
</g>
<g>
</g>
<g>
</g>
<g>
</g>
<g>
</g>
<g>
</g>
<g>
</g>
<g>
</g>
</svg>
