<?xml version="1.0" encoding="iso-8859-1"?>
<!-- Generator: Adobe Illustrator 19.0.0, SVG Export Plug-In . SVG Version: 6.00 Build 0)  -->
<svg version="1.1" id="Layer_1" xmlns="http://www.w3.org/2000/svg" xmlns:xlink="http://www.w3.org/1999/xlink" x="0px" y="0px"
	 viewBox="0 0 500 500" style="enable-background:new 0 0 500 500;" xml:space="preserve">
<g>
	<g>
		<path d="M440.272,0h-182.46v242.188H500V61.632C500,27.648,474.252,0,440.272,0z M451.272,136.716h-140.6
			c-4.312,0-7.812-3.5-7.812-7.812s3.5-7.812,7.812-7.812h140.6c4.316,0,7.812,3.5,7.812,7.812S455.588,136.716,451.272,136.716z"/>
	</g>
</g>
<g>
	<g>
		<path d="M257.812,257.812V500h182.46c33.98,0,59.728-27.648,59.728-61.632V257.812H257.812z M385.04,300.956
			c10.768,0,19.532,8.76,19.532,19.532c0,10.772-8.76,19.532-19.532,19.532c-10.772,0-19.532-8.76-19.532-19.532
			C365.508,309.716,374.268,300.956,385.04,300.956z M385.04,441.408c-10.768,0-19.532-8.76-19.532-19.532
			c0-10.772,8.76-19.532,19.532-19.532c10.772,0,19.532,8.76,19.532,19.532C404.572,432.648,395.808,441.408,385.04,441.408z
			 M451.272,378.908h-140.6c-4.312,0-7.812-3.5-7.812-7.812s3.5-7.812,7.812-7.812h140.6c4.316,0,7.812,3.5,7.812,7.812
			S455.588,378.908,451.272,378.908z"/>
	</g>
</g>
<g>
	<g>
		<path d="M63.532,0C29.552,0,0,27.648,0,61.632v180.556h242.188V0H63.532z M201.356,136.716h-60.732v62.824
			c0,4.316-3.5,7.812-7.812,7.812s-7.812-3.5-7.812-7.812v-62.82H60.752c-4.316,0-7.812-3.5-7.812-7.812
			c0-4.312,3.496-7.816,7.812-7.816H125V58.268c0-4.316,3.5-7.812,7.812-7.812s7.812,3.5,7.812,7.812v62.824h60.732
			c4.316,0,7.812,3.5,7.812,7.812S205.668,136.716,201.356,136.716z"/>
	</g>
</g>
<g>
	<g>
		<path d="M0,257.812v180.556C0,472.352,29.552,500,63.532,500h178.656V257.812H0z M199.112,439.276
			c-1.524,1.524-3.52,2.288-5.52,2.288s-4-0.76-5.524-2.288l-57.012-57.016L74.34,438.976c-1.524,1.524-3.524,2.288-5.524,2.288
			s-3.996-0.764-5.524-2.288c-3.052-3.052-3.052-8,0-11.048l56.712-56.716L63,314.204c-3.052-3.048-3.052-8,0-11.048
			c3.052-3.052,7.996-3.052,11.048,0l57.008,57.008l56.712-56.712c3.052-3.052,7.996-3.052,11.048,0c3.052,3.048,3.052,8,0,11.048
			L142.1,371.216l57.012,57.012C202.164,431.28,202.164,436.224,199.112,439.276z"/>
	</g>
</g>
<g>
</g>
<g>
</g>
<g>
</g>
<g>
</g>
<g>
</g>
<g>
</g>
<g>
</g>
<g>
</g>
<g>
</g>
<g>
</g>
<g>
</g>
<g>
</g>
<g>
</g>
<g>
</g>
<g>
</g>
</svg>
