<svg height="512" viewBox="0 0 512 512" width="512" xmlns="http://www.w3.org/2000/svg"><g id="solid"><path d="m294.927 408h-238.927a8 8 0 0 1 -8-8v-344a8 8 0 0 1 8-8h344a8 8 0 0 1 8 8v255.35a51 51 0 0 1 15.216-8.456v-255.757a15.155 15.155 0 0 0 -15.138-15.137h-360.94a15.155 15.155 0 0 0 -15.138 15.137v360.942a15.155 15.155 0 0 0 15.138 15.137h262.962l-14.271-14.271c-.31-.309-.6-.631-.902-.945z"/><path d="m392 64h-328v183.059h47.133l16.5-41.246a8 8 0 0 1 15.107.732l20.747 71.148 47.313-136.316a8 8 0 0 1 15.147.093l35.2 105.589h130.853z"/><path d="m332.206 300.035a51.111 51.111 0 0 1 36.379 15.065l17.615 17.614 5.8-5.8v-63.855h-136.628a8 8 0 0 1 -7.59-5.471l-29.582-88.748-47.819 137.783a8 8 0 0 1 -7.556 5.377h-.2a8 8 0 0 1 -7.478-5.759l-21.272-72.947-9.9 24.738a8 8 0 0 1 -7.428 5.029h-52.547v128.939h219.533a66.4 66.4 0 0 1 12.294-76.9 51.114 51.114 0 0 1 36.379-15.065z"/><path d="m465.251 326.417a35.216 35.216 0 0 0 -25.065-10.382 35.763 35.763 0 0 0 -6.948.677c-.2.053-.407.1-.616.136a35.2 35.2 0 0 0 -17.5 9.569l-23.267 23.267a8 8 0 0 1 -11.315 0l-23.268-23.267a35.448 35.448 0 0 0 -50.13 0 50.354 50.354 0 0 0 0 71.214l79.058 79.056 79.055-79.056a50.413 50.413 0 0 0 -.004-71.214zm-50.9 88.505-22.5 22.495a8 8 0 0 1 -11.312-11.317l22.5-22.5a8 8 0 1 1 11.315 11.314zm33.743-33.743-7.971 7.97a8 8 0 0 1 -11.312-11.315l7.97-7.97a8 8 0 1 1 11.313 11.315z"/></g></svg>