<?xml version="1.0" encoding="UTF-8"?>
<svg xmlns="http://www.w3.org/2000/svg" xmlns:xlink="http://www.w3.org/1999/xlink" width="48pt" height="48pt" viewBox="0 0 48 48" version="1.1">
<g id="surface1">
<path style=" stroke:none;fill-rule:nonzero;fill:rgb(0%,0%,0%);fill-opacity:1;" d="M 25.257812 34.949219 L 20.9375 34.949219 L 20.9375 30.429688 L 25.257812 30.429688 Z M 20.9375 48.007812 L 25.257812 48.007812 L 25.257812 43.488281 L 20.9375 43.488281 Z M 32.394531 37.144531 L 20.976562 37.144531 L 20.976562 41.664062 L 32.394531 41.664062 Z M 46.667969 37.144531 L 35.25 37.144531 L 35.25 41.664062 L 46.671875 41.664062 L 46.671875 37.144531 Z M 28.113281 48.007812 L 39.53125 48.007812 L 39.53125 43.488281 L 28.113281 43.488281 Z M 42.386719 48.007812 L 46.789062 48.007812 L 46.789062 43.488281 L 42.386719 43.488281 Z M 39.53125 30.429688 L 28.113281 30.429688 L 28.113281 34.949219 L 39.53125 34.949219 Z M 42.386719 30.429688 L 42.386719 34.949219 L 46.789062 34.949219 L 46.789062 30.429688 Z M 25.140625 16.007812 C 26.5625 16.007812 27.128906 18.570312 28.265625 19.136719 C 29.121094 19.421875 30.824219 17.714844 33.382812 19.847656 C 35.941406 21.980469 36.039062 19.46875 36.605469 16.910156 C 36.890625 14.351562 33.953125 14.589844 33.953125 13.167969 C 33.386719 8.902344 35.375 8.621094 31.679688 4.921875 C 31.59375 4.839844 31.5 4.753906 31.40625 4.667969 C 37.132812 7.878906 41.015625 14.011719 41.015625 21.035156 C 41.015625 22.164062 40.910156 23.269531 40.71875 24.34375 C 37.660156 25.945312 32.324219 24.066406 31.472656 28.292969 L 41.992188 28.292969 C 42.226562 27.660156 42.433594 27.015625 42.605469 26.355469 L 42.972656 24.644531 C 43.179688 23.46875 43.289062 22.265625 43.289062 21.035156 C 43.289062 9.4375 33.851562 0 22.253906 0 C 10.65625 0 1.21875 9.4375 1.21875 21.035156 C 1.21875 31.347656 8.675781 39.941406 18.476562 41.726562 L 18.476562 41.347656 L 18.515625 41.347656 L 18.515625 38.234375 L 18.476562 38.234375 L 18.476562 29.167969 C 18.320312 29.113281 18.15625 29.066406 17.976562 29.042969 C 15.890625 28.753906 14.214844 30.640625 13.640625 32.453125 C 13.085938 34.195312 13.703125 36.179688 14.140625 37.949219 C 11.480469 36.671875 9.167969 34.773438 7.382812 32.457031 C 8.949219 33.167969 10.515625 33.050781 10.671875 30.957031 C 10.859375 28.421875 6.542969 26.113281 6.386719 23.5625 C 6.574219 23.054688 6.707031 22.414062 6.792969 21.722656 C 7.585938 20.082031 9.15625 18.96875 8.042969 16.507812 C 7.582031 15.375 6.140625 14.761719 4.726562 14.355469 C 6.261719 10.34375 9.132812 6.992188 12.792969 4.84375 C 18.675781 9.117188 13.285156 19.046875 18.886719 21.980469 C 23.71875 24.253906 21.160156 16.292969 25.140625 16.007812 Z M 25.140625 16.007812 "/>
</g>
</svg>
