<svg height="512" viewBox="0 0 64 64" width="512" xmlns="http://www.w3.org/2000/svg"><path d="M55 48a6.979 6.979 0 00-4.967 2.069l-18.26-13.548A8.945 8.945 0 0033 32c0-.705-.089-1.388-.243-2.047l16.05-5.695A6.996 6.996 0 0055 28a7 7 0 10-6.863-5.626l-16.05 5.695a9.03 9.03 0 00-3.897-4.032l3.219-8.227c.512.121 1.043.19 1.591.19a7 7 0 10-7-7 6.994 6.994 0 003.545 6.083l-3.221 8.231A8.995 8.995 0 0024 23a8.95 8.95 0 00-4.044.968l-6.337-9.717A6.977 6.977 0 0016 9a7 7 0 10-7 7 6.955 6.955 0 002.944-.656l6.333 9.71A8.98 8.98 0 0015 32a8.967 8.967 0 002.994 6.689l-5.782 8.095A6.97 6.97 0 009 46a7 7 0 107 7 6.971 6.971 0 00-2.163-5.052l5.779-8.091a8.968 8.968 0 0010.964-1.73l18.26 13.548A7 7 0 1055 48zm-2.293-27.707L54 21.586l4.293-4.293 1.414 1.414L54 24.414l-2.707-2.707zM29.293 9.707l1.414-1.414L32 9.586l4.293-4.293 1.414 1.414L32 12.414zM8 56.414l-2.707-2.707 1.414-1.414L8 53.586l4.293-4.293 1.414 1.414z"/></svg>