<?xml version="1.0" encoding="iso-8859-1"?>
<!-- Generator: Adobe Illustrator 19.0.0, SVG Export Plug-In . SVG Version: 6.00 Build 0)  -->
<svg version="1.1" id="Layer_1" xmlns="http://www.w3.org/2000/svg" xmlns:xlink="http://www.w3.org/1999/xlink" x="0px" y="0px"
	 viewBox="0 0 512 512" style="enable-background:new 0 0 512 512;" xml:space="preserve">
<g>
	<g>
		<path d="M490.667,170.667h-256V64c0-11.776-9.536-21.333-21.333-21.333h-192C9.536,42.667,0,52.224,0,64v384
			c0,11.776,9.536,21.333,21.333,21.333H64v-128C64,329.557,73.536,320,85.333,320h64c11.797,0,21.333,9.557,21.333,21.333v128
			h42.667h277.333c11.797,0,21.333-9.557,21.333-21.333V192C512,180.224,502.464,170.667,490.667,170.667z M106.667,277.333
			c0,11.776-9.536,21.333-21.333,21.333c-11.797,0-21.333-9.557-21.333-21.333V256c0-11.776,9.536-21.333,21.333-21.333
			c11.797,0,21.333,9.557,21.333,21.333V277.333z M106.667,170.667c0,11.776-9.536,21.333-21.333,21.333
			C73.536,192,64,182.443,64,170.667v-21.333C64,137.557,73.536,128,85.333,128c11.797,0,21.333,9.557,21.333,21.333V170.667z
			 M170.667,277.333c0,11.776-9.536,21.333-21.333,21.333c-11.797,0-21.333-9.557-21.333-21.333V256
			c0-11.776,9.536-21.333,21.333-21.333c11.797,0,21.333,9.557,21.333,21.333V277.333z M170.667,170.667
			c0,11.776-9.536,21.333-21.333,21.333C137.536,192,128,182.443,128,170.667v-21.333c0-11.776,9.536-21.333,21.333-21.333
			c11.797,0,21.333,9.557,21.333,21.333V170.667z M320,384c0,11.776-9.536,21.333-21.333,21.333
			c-11.797,0-21.333-9.557-21.333-21.333v-21.333c0-11.776,9.536-21.333,21.333-21.333c11.797,0,21.333,9.557,21.333,21.333V384z
			 M320,277.333c0,11.776-9.536,21.333-21.333,21.333c-11.797,0-21.333-9.557-21.333-21.333V256
			c0-11.776,9.536-21.333,21.333-21.333c11.797,0,21.333,9.557,21.333,21.333V277.333z M426.667,384
			c0,11.776-9.536,21.333-21.333,21.333C393.536,405.333,384,395.776,384,384v-21.333c0-11.776,9.536-21.333,21.333-21.333
			c11.797,0,21.333,9.557,21.333,21.333V384z M426.667,277.333c0,11.776-9.536,21.333-21.333,21.333
			c-11.797,0-21.333-9.557-21.333-21.333V256c0-11.776,9.536-21.333,21.333-21.333c11.797,0,21.333,9.557,21.333,21.333V277.333z"/>
	</g>
</g>
<g>
</g>
<g>
</g>
<g>
</g>
<g>
</g>
<g>
</g>
<g>
</g>
<g>
</g>
<g>
</g>
<g>
</g>
<g>
</g>
<g>
</g>
<g>
</g>
<g>
</g>
<g>
</g>
<g>
</g>
</svg>
