<svg viewBox="0 0 800 480" style="width:800px;height:480px;position:absolute;left:50%;top:50%;margin-left:-400px;margin-top:-240px"><style>@-webkit-keyframes arm-rotate{0%{-webkit-transform:rotateZ(-3deg)}50%{-webkit-transform:rotateZ(6deg)}}@-moz-keyframes arm-rotate{0%{-moz-transform:rotateZ(-3deg)}50%{-moz-transform:rotateZ(6deg)}}@-o-keyframes arm-rotate{0%{-o-transform:rotateZ(-3deg)}50%{-o-transform:rotateZ(6deg)}}@keyframes arm-rotate{0%{-webkit-transform:rotateZ(-3deg);-moz-transform:rotateZ(-3deg);-ms-transform:rotateZ(-3deg);transform:rotateZ(-3deg)}50%{-webkit-transform:rotateZ(6deg);-moz-transform:rotateZ(6deg);-ms-transform:rotateZ(6deg);transform:rotateZ(6deg)}}@-webkit-keyframes monkey-breathe{0%{-webkit-transform:translate3d(0,0,0)}50%{-webkit-transform:translate3d(0,1px,0)}}@-moz-keyframes monkey-breathe{0%{-moz-transform:translate3d(0,0,0)}50%{-moz-transform:translate3d(0,1px,0)}}@-o-keyframes monkey-breathe{0%{-o-transform:translate3d(0,0,0)}50%{-o-transform:translate3d(0,1px,0)}}@keyframes monkey-breathe{0%{-webkit-transform:translate3d(0,0,0);-moz-transform:translate3d(0,0,0);-ms-transform:translate3d(0,0,0);transform:translate3d(0,0,0)}50%{-webkit-transform:translate3d(0,1px,0);-moz-transform:translate3d(0,1px,0);-ms-transform:translate3d(0,1px,0);transform:translate3d(0,1px,0)}}@-webkit-keyframes levitate{0%{-webkit-transform:translate3d(0,0,0)}50%{-webkit-transform:translate3d(0,5px,0)}}@-moz-keyframes levitate{0%{-moz-transform:translate3d(0,0,0)}50%{-moz-transform:translate3d(0,5px,0)}}@-o-keyframes levitate{0%{-o-transform:translate3d(0,0,0)}50%{-o-transform:translate3d(0,5px,0)}}@keyframes levitate{0%{-webkit-transform:translate3d(0,0,0);-moz-transform:translate3d(0,0,0);-ms-transform:translate3d(0,0,0);transform:translate3d(0,0,0)}50%{-webkit-transform:translate3d(0,5px,0);-moz-transform:translate3d(0,5px,0);-ms-transform:translate3d(0,5px,0);transform:translate3d(0,5px,0)}}@-webkit-keyframes star{0%{-webkit-transform:translate3d(0,0,0) rotateZ(0deg)}50%{-webkit-transform:translate3d(0,5px,0) rotateZ(180deg)}}@-moz-keyframes star{0%{-moz-transform:translate3d(0,0,0) rotateZ(0deg)}50%{-moz-transform:translate3d(0,5px,0) rotateZ(180deg)}}@-o-keyframes star{0%{-o-transform:translate3d(0,0,0) rotateZ(0deg)}50%{-o-transform:translate3d(0,5px,0) rotateZ(180deg)}}@keyframes star{0%{-webkit-transform:translate3d(0,0,0) rotateZ(0deg);-moz-transform:translate3d(0,0,0) rotateZ(0deg);-ms-transform:translate3d(0,0,0) rotateZ(0deg);transform:translate3d(0,0,0) rotateZ(0deg)}50%{-webkit-transform:translate3d(0,5px,0) rotateZ(180deg);-moz-transform:translate3d(0,5px,0) rotateZ(180deg);-ms-transform:translate3d(0,5px,0) rotateZ(180deg);transform:translate3d(0,5px,0) rotateZ(180deg)}}@-webkit-keyframes blink-l{0%,20%,24%,30%,34%,4%,70%,74%{-webkit-transform:rotateX(0deg)}2%,22%,32%,72%{-webkit-transform:rotateX(80deg)}}@-moz-keyframes blink-l{0%,20%,24%,30%,34%,4%,70%,74%{-moz-transform:rotateX(0deg)}2%,22%,32%,72%{-moz-transform:rotateX(80deg)}}@-o-keyframes blink-l{0%,20%,24%,30%,34%,4%,70%,74%{-o-transform:rotateX(0deg)}2%,22%,32%,72%{-o-transform:rotateX(80deg)}}@keyframes blink-l{0%,20%,24%,30%,34%,4%,70%,74%{-webkit-transform:rotateX(0deg);-moz-transform:rotateX(0deg);-ms-transform:rotateX(0deg);transform:rotateX(0deg)}2%,22%,32%,72%{-webkit-transform:rotateX(80deg);-moz-transform:rotateX(80deg);-ms-transform:rotateX(80deg);transform:rotateX(80deg)}}@-webkit-keyframes blink-r{0%,30%,34%,4%,50%,54%{-webkit-transform:rotateX(0deg)}2%,32%,52%{-webkit-transform:rotateX(80deg)}}@-moz-keyframes blink-r{0%,30%,34%,4%,50%,54%{-moz-transform:rotateX(0deg)}2%,32%,52%{-moz-transform:rotateX(80deg)}}@-o-keyframes blink-r{0%,30%,34%,4%,50%,54%{-o-transform:rotateX(0deg)}2%,32%,52%{-o-transform:rotateX(80deg)}}@keyframes blink-r{0%,30%,34%,4%,50%,54%{-webkit-transform:rotateX(0deg);-moz-transform:rotateX(0deg);-ms-transform:rotateX(0deg);transform:rotateX(0deg)}2%,32%,52%{-webkit-transform:rotateX(80deg);-moz-transform:rotateX(80deg);-ms-transform:rotateX(80deg);transform:rotateX(80deg)}}[not-existing]{zoom:1}</style><path id="cloud" class="st0" d="M658.4 345.2c-10.9 0-19.7-8.8-19.7-19.7 0-10.9 8.8-19.7 19.7-19.7h50.1c9.9-1.5 17.5-10 17.5-20.3 0-11.4-9.2-20.6-20.6-20.6v-.2H633c-11.4 0-20.6-6.7-20.6-18.1 0-11.4 9.2-19.3 20.6-19.3h70.4l2-.2c7.3-3.1 12.5-11 12.5-19.5s-4.2-16.7-11.4-19.2l-2.5-.3h-11.3c-11.9 0-21.6-8.9-21.6-19.9 0-11 9.7-19.9 21.6-19.9h15.8l1.4-.3c8.6-2.5 14.8-10.1 14.8-19.5 0-11.4-9.2-20.6-20.6-20.6H382.5c-19.8-.9-19.9-15.9-19.8-17.8v-.2c0-9.9-8.1-18-18-18h-93.5c-9.9 0-18 8.1-18 18 0 9.4 7.2 17.1 16.3 17.9h11c10.1.9 18 9.3 18 19.6 0 10.9-8.8 19.7-19.7 19.7h-70.7c-11.3 0-20.5 9.2-20.5 20.6 0 11.3 9.1 20.5 20.4 20.6h48.8c10.3 0 18.7 8.4 18.7 18.7 0 10.3-8.4 18.7-18.7 18.7h-23.2c-11.3.1-20.4 9.2-20.4 20.6 0 11.3 9.2 20.5 20.5 20.6h6.3c10.7 0 19.3 8.7 19.3 19.3 0 10.7-7.8 19.3-18.4 19.3h-1.5l-2.8.4c-7.3 3.1-11.8 11-11.5 18.9.3 8.5 4.2 16.5 11.7 19.6 1.1.7 3.4.9 4.4.9h94.5c3.9.5 8.2 4.2 7.4 10.4 0 .4 0 .8.1 1.1 0 .5-.1 1-.1 1.5 0 9.7 7.9 17.5 17.5 17.5h60.2c9.7 0 17.5-7.9 17.5-17.5 0-.4 0-.8-.1-1.2.1-.3 0-.7.1-1.1.3-6.5 6.4-10.9 10.6-10.8H539c8.5 0 16.9 6.6 16.9 14.8 0 8.2 6.6 14.8 14.8 14.8h92.6c8.2 0 14.8-6.6 14.8-14.8 0-8.2-6.6-14.8-14.8-14.8M332.8 187.1h-21.2c-11.4 0-20.6-9.2-20.6-20.6 0-11.4 9.2-20.6 20.6-20.6h21.2c11.4 0 20.6 9.2 20.6 20.6-.1 11.4-9.3 20.6-20.6 20.6z"/><g id="zelda" style="-webkit-animation-delay:0s;-moz-animation-delay:0s;-o-animation-delay:0s;animation-delay:0s;-webkit-animation-duration:3s;-moz-animation-duration:3s;-o-animation-duration:3s;animation-duration:3s;-webkit-animation:levitate 3s infinite ease-in-out;-moz-animation:levitate 3s infinite ease-in-out;-o-animation:levitate 3s infinite ease-in-out;animation:levitate 3s infinite ease-in-out"><path id="zelda_dark_shadow" class="st0" d="M156.9 91.5l-18.5-32 18.5 10.7v21.3zm36.9-21.3l-18.5-10.7 18.5 32V70.2zm-18.4 32l-18.5-10.7 18.5 32v-21.3z"/><path id="zelda_light_shadow" class="st0" d="M175.4 59.5l-18.5 10.7-18.5-10.7h37zm0 0l18.5 10.7 18.5-10.7h-37zm-18.5 32l18.5 10.7 18.5-10.7h-37z"/><path id="zelda_highlight" class="st1" d="M150.6 66.6h12.5l-6.3 10.8-6.2-10.8zm43.2 10.8l6.3-10.8h-12.5l6.2 10.8zm-18.4 32l6.3-10.8h-12.5l6.2 10.8z"/><path id="zelda_stroke" class="st2" d="M138.4 59.5h36.9l-18.5 32-18.4-32zm55.4 32l18.5-32h-36.9l18.4 32zm-18.4 32l18.5-32H157l18.4 32z" stroke="#89949b" stroke-width="3" stroke-linecap="round" stroke-linejoin="round" stroke-miterlimit="10"/></g><path id="rock_shade" class="st0" d="M243.3 374.9H140.1c-1.7 0-2.1 2.5-.4 2.9l44.7 12.6-19.3 45 34-46.5 39.4-7.4 4.8-6.6z"/><path id="rock" class="st5" d="M104 367.5h134.6c1.9 3.5 2.3 4.3 4.1 7.8l-4.3 6.3L199 389l-40 52" stroke="#89949b" stroke-width="3" stroke-linecap="round" stroke-linejoin="round" stroke-miterlimit="10"/><path id="foot_back" class="st3" d="M187.3 354.5c2.2-4.5 1.6-12.8-3.3-18.5l-9.3 2c2.2 3.5 8.3 7.7 2.3 20.8-1.9 4.2-.8 8.7 4 8.7h22.3c6.5 0 5.3-7.9 2-10.5-4.2-3.3-10.2-3.6-15.3-1-2.1 1.1-4.7 2.7-2.7-1.5z" stroke="#89949b" stroke-width="3" stroke-linecap="round" stroke-linejoin="round" stroke-miterlimit="10"/><path id="foot_front" class="st4" d="M166.3 354.5c2.2-4.5 1.6-12.8-3.3-18.5l-9.3 2c2.2 3.5 8.3 7.7 2.3 20.8-1.9 4.2-.8 8.7 4 8.7h22.3c6.5 0 5.3-7.9 2-10.5-4.2-3.3-10.2-3.6-15.3-1-2.1 1.1-4.7 2.7-2.7-1.5z"/><g id="monkey" style="-webkit-animation:monkey-breathe 3s infinite ease-in-out;-moz-animation:monkey-breathe 3s infinite ease-in-out;-o-animation:monkey-breathe 3s infinite ease-in-out;animation:monkey-breathe 3s infinite ease-in-out"><path id="face_1_" class="st4" d="M213.7 245.2s-6-2.9-11 .2c-4.6 2.8-9.4 1.7-14 0s-16-5.1-19.2 2.6c-2 3.8-2.3 9.7 3.8 16.3-.9 10.1-2.9 37.9 28.6 34.2 10.1-1.2 24.8-12.7 25.4-18.2s-1.2-6.8-6.4-6.9c-1.3-6.5-2.4-12.6-10.8-11.4-3.9.2 7.5 0 8.1-7.5.4-6.7-4.5-9.3-4.5-9.3z"/><path id="body" class="st4" d="M199.8 299.3l9-55.5s-2.1-3.6-7.2-7.1c1.4-1.2 2.2-3.1 1.8-5-.6-3.1-3.9-5.3-7.5-4.8-2.9.4-5 2.4-5.4 4.8-7.2-1.9-16.5-1.9-29.5 1.6-1.5-3.1-5.6-5.4-9.3-5.7-5.5-.4-9.3 3.7-9.7 9.3-.3 4.4 2.2 8.3 6.1 9.9-16 25.6-14.6 58.2-11 71.9 4.3 16.1 18.2 21.8 26.3 21.8 13 0 33.8-1.9 37.5-17.7 2-7.8 1.1-18.9-1.1-23.5z"/><path id="tail" class="st6" d="M87.037 313.773c-.498-13.065-22.46-8.367-19.98 8.039 3.098 20.386 23.933 19.328 39.678 7.603 10.555-8.094 16.184-2.732 19.812.34 3.158 2.95 9.153 3.545 13.453-2.755" stroke="#89949b" stroke-width="4" stroke-linecap="round" stroke-linejoin="round" stroke-miterlimit="10"/><path id="face" class="st7" d="M213.7 245.2s-6-2.9-11 .2c-4.6 2.8-9.4 1.7-14 0s-16-5.1-19.2 2.6c-2 3.8-2.3 9.7 3.8 16.3-.9 10.1-2.9 37.9 28.6 34.2 10.1-1.2 24.8-12.7 25.4-18.2s-1.2-6.8-6.4-6.9c-1.3-6.5-2.4-12.6-10.8-11.4-3.9.2 7.5 0 8.1-7.5.4-6.7-4.5-9.3-4.5-9.3z" stroke="#89949b" stroke-width="2" stroke-linecap="round" stroke-linejoin="round" stroke-miterlimit="10"/><path id="mouth" class="st8" d="M201.6 281.5s.2-.3.5-.8c.1-.3.4-.6.6-.9.2-.4.6-.7.9-1.1l1.2-1.2c.5-.4.9-.8 1.5-1.2.5-.4 1.1-.7 1.7-1.1.6-.3 1.2-.6 1.9-.9.6-.3 1.3-.5 1.9-.7.7-.2 1.3-.4 1.9-.5.6-.2 1.3-.3 1.8-.4.6-.1 1.2-.1 1.7-.2s1-.1 1.4-.1h2.1c.6 0 1 .5 1 1s-.5 1-1 1h-3.3c-.5 0-1 0-1.6.1-.6.1-1.1.1-1.7.3-.6.1-1.2.3-1.8.4l-1.8.6c-.6.2-1.2.5-1.8.8-.6.3-1.1.6-1.6.9-.5.3-1 .7-1.4 1-.4.3-.8.7-1.2 1-.3.4-.7.7-.9 1-.2.3-.5.5-.6.8-.3.5-.5.8-.5.8-.2.2-.5.3-.7.1-.2-.1-.3-.4-.2-.7z"/><path id="nose_hole" class="st9" d="M213.2 266.3c.6 0 1 .5.9 1.1 0 .6-.5 1-1.1.9-.6 0-1-.5-.9-1.1 0-.6.5-1 1.1-.9z"/><path id="nose_hole_1_" class="st9" d="M208.1 266.9c.6 0 1 .5.9 1.1 0 .6-.5 1-1.1.9-.6 0-1-.5-.9-1.1.1-.5.6-.9 1.1-.9z"/><path id="eye_right" class="st9" d="M205 253.5c1.1.1 1.9 1 1.9 2.1-.1 1.1-1 1.9-2.1 1.9-1.1-.1-1.9-1-1.9-2.1.1-1.1 1-2 2.1-1.9z" style="-webkit-transform-origin:205px 256px;-moz-transform-origin:205px 256px;-ms-transform-origin:205px 256px;-o-transform-origin:205px 256px;transform-origin:205px 256px;-webkit-animation:blink-r 12s infinite ease-in-out;-moz-animation:blink-r 12s infinite ease-in-out;-o-animation:blink-r 12s infinite ease-in-out;animation:blink-r 12s infinite ease-in-out"/><path id="eye_left" class="st9" d="M191.5 254.6c1.4.1 2.4 1.3 2.3 2.7-.1 1.4-1.3 2.4-2.7 2.3-1.4-.1-2.4-1.3-2.3-2.7.1-1.3 1.3-2.4 2.7-2.3z" style="-webkit-transform-origin:191px 257px;-moz-transform-origin:191px 257px;-ms-transform-origin:191px 257px;-o-transform-origin:191px 257px;transform-origin:191px 257px;-webkit-animation:blink-l 12s infinite ease-in-out;-moz-animation:blink-l 12s infinite ease-in-out;-o-animation:blink-l 12s infinite ease-in-out;animation:blink-l 12s infinite ease-in-out"/><path id="mongkey_shadow_1_" class="st0" d="M209.1 281c.9-.9 9.4-2.6 12-3 2.4-.4-1.6 4.1-5 5s-7.9-1-7-2zm-65.5-43.9c-.3 3.6 1.8 7 5.2 8.4.4.2.7.5.8.9.1.4.1.9-.2 1.2-15.1 24.2-14.7 56.3-10.8 70.8 4 15.2 17.1 20.7 24.8 20.7 8.9 0 16.1-1 21.8-2.9-67.5 2.2-35-81.7-33.3-87.3.2-.8 1.2-4.4 1-5-.6-1.6-3.5-.2-6-4-2.9-4.5 1.2-9.2 2.6-10.6-3.2.8-5.6 3.7-5.9 7.8zm58.1 60.4c7.8-.9 17.9-8 22.3-13.3-27.4 14.7-44.4 3.1-50.1-9.8.3 5.9 1.6 12.6 5.9 17.3 4.6 5 12 7 21.9 5.8zm6.9-36.3c-5.7.8-8.6-1.1-11.6 1.8-2.8 2.7-7.7 4.6-3.8 4.1 3.9-.6 10.1-3.4 16.8-4.1h-.9c-.5 0-1-.4-1-.9.1-.2.1-.6.5-.9zM198.4 300c0-.1 0-.1-.1-.2-.7 0-1.4.1-2 .1-7.8 0-13.9-2.3-18-6.8-7.7-8.4-6.6-22.5-6.1-28.4-5.6-6.2-5.6-11.5-4.6-15-2 2.3-4.8 8.5 2.1 16.1-3.9 6.4-5.4 26.5 9.2 36.2 7.2 4.8 16.6 5.3 20.8 2.8-.2-1.9-.7-3.6-1.3-4.8z"/><path id="belly" class="st10" d="M189.1 304c6.2 3 8.1 11.5 5.9 19-2.3 7.4-9.8 10-16 7-6.2-3-7.6-10.4-5.3-17.8s9.2-11.1 15.4-8.2z" stroke="#89949b" stroke-width="2" stroke-linecap="round" stroke-linejoin="round" stroke-miterlimit="10"/><path id="belly_button" class="st8" d="M191.2 322.3c0-.1-.1-.2-.2-.2l-1.9-1.4 1-1.9c.1-.1.1-.2 0-.3-.1-.2-.4-.4-.7-.3-.2 0-.4.2-.5.3l-.9 1.7-1.6-1.2c-.2-.1-.3-.1-.5-.1-.4.1-.5.4-.5.6 0 .1.1.2.2.2l1.8 1.3-1.1 2.1c-.1.1-.1.2 0 .3.1.3.4.4.7.4.2 0 .3-.1.4-.3l1-1.9 1.7 1.3c.1.1.3.1.5.1.5-.2.7-.5.6-.7z"/><g id="monkey_arm"><path id="arm" class="st4" d="M164.3 344.1c-.9-.3-1.8-.2-2.5.2-.3-.2-.6-.3-.9-.4-.8-.3-1.5-.5-2.3-.5-.1 0-.2-.1-.3-.3-2.4-11.4-1.1-27.6.3-43.8 0-.1 1.2-5.7-2.6-7.2-5.2-2.1-5.5 2.5-5.5 2.7-.5 4.8-3.6 39 1.1 51.4v.3c-.4.5-.7 1-.9 1.7-1.5 3.9.7 8.3 4.8 9.9 4.1 1.6 8.7-.3 10.1-4.2.5-1.3.6-2.7.3-4 0-.1 0-.2.1-.2.5-.7.9-1.6.5-2.9-.3-1.3-1.1-2.4-2.2-2.7z" style="-webkit-transform-origin:155px 292px;-moz-transform-origin:155px 292px;-ms-transform-origin:155px 292px;-o-transform-origin:155px 292px;transform-origin:155px 292px;-webkit-transform:rotateZ(-2deg);-moz-transform:rotateZ(-2deg);-ms-transform:rotateZ(-2deg);-o-transform:rotateZ(-2deg)"/><g id="armpit"><path id="armpit_mask" class="st11" d="M165 296c0-4.3-1.8-10.8-6-12-12.5-3.5-12.4 11.1-12.4 11.1s10.8-1.4 16.7 9.6c0-.1 1.7-4.4 1.7-8.7z"/><path id="armpit_line" class="st8" d="M163.9 295.6s-.3-.2-.8-.5c-.2-.2-.5-.3-.9-.5-.3-.2-.8-.4-1.2-.6-.5-.2-.9-.5-1.5-.6-.5-.2-1.1-.4-1.7-.6-.6-.1-1.2-.3-1.9-.4-.7-.1-1.3-.2-2-.2s-1.3 0-2 .1c-.7 0-1.3.2-1.9.3-1.2.3-2.4.6-3.3 1-.9.4-1.7.8-2.2 1.1-.3.2-.5.3-.6.4-.1.1-.2.1-.2.1-.4.3-.5.9-.2 1.3.3.5.9.6 1.4.3 0 0 .1 0 .2-.1s.3-.2.5-.3c.3-.2.8-.4 1.3-.7h.5c.5 0 1.3.1 2.2.2.4.1.9.2 1.4.3.5.1 1 .3 1.6.4.5.2 1.1.4 1.6.6.6.2 1.1.5 1.6.8.6.3 1 .6 1.5 1 .5.3.9.7 1.4 1.1.4.4.8.8 1.2 1.1.4.4.7.8 1 1.1.3.4.6.7.8 1 .2.3.4.6.6.8.3.5.5.7.5.7.1.2.4.3.6.2.2-.1.3-.4.2-.7 0 0-.2-.3-.4-.8-.1-.3-.3-.6-.5-.9-.2-.4-.4-.7-.7-1.1-.3-.4-.6-.9-.9-1.3-.4-.4-.7-.9-1.2-1.4-.5-.4-.9-.9-1.4-1.3-.5-.4-1-.8-1.6-1.2-.6-.4-1.1-.7-1.8-1-.6-.3-1.2-.5-1.8-.8-.5-.2-1-.3-1.5-.4.1 0 .2 0 .3-.1.6-.1 1.2-.1 1.8-.2.6-.1 1.2 0 1.8 0 .6 0 1.2.2 1.7.2.6.1 1.1.3 1.6.4.5.1 1 .3 1.4.5.4.2.8.3 1.2.5.3.2.6.3.9.4.5.2.8.4.8.4.2.1.5 0 .6-.2.3 0 .2-.3 0-.4z"/></g></g></g><g id="tetris" style="-webkit-animation-delay:1s;-moz-animation-delay:1s;-o-animation-delay:1s;animation-delay:1s;-webkit-animation-duration:3s;-moz-animation-duration:3s;-o-animation-duration:3s;animation-duration:3s;-webkit-animation:levitate 3s infinite ease-in-out;-moz-animation:levitate 3s infinite ease-in-out;-o-animation:levitate 3s infinite ease-in-out;animation:levitate 3s infinite ease-in-out"><path id="tetris_stroke" class="st12" d="M487.5 357.5h30v30h-30v-30z"/><path class="st0" d="M516 359l-4.5 5.4c-.3.4-.5.8-.5 1.3V380c0 .6-.4 1-1 1h-14.3c-.5 0-.9.2-1.3.5L489 386h27v-27z"/><path id="tetris_stroke_2_" class="st12" d="M487.5 327h30v30h-30v-30z"/><path class="st0" d="M516 328.5l-4.5 5.4c-.3.4-.5.8-.5 1.3v14.3c0 .6-.4 1-1 1h-14.3c-.5 0-.9.2-1.3.5l-5.4 4.5h27v-27z"/><path id="tetris_stroke_1_" class="st12" d="M518 357.5h30v30h-30v-30z"/><path class="st0" d="M546.5 359l-4.5 5.4c-.3.4-.5.8-.5 1.3V380c0 .6-.4 1-1 1h-14.3c-.5 0-.9.2-1.3.5l-5.4 4.5h27v-27z"/><path id="tetris_stroke_3_" class="st12" d="M549 357.5h30v30h-30v-30z"/><path class="st0" d="M577.5 359l-4.5 5.4c-.3.4-.5.8-.5 1.3V380c0 .6-.4 1-1 1h-14.3c-.5 0-.9.2-1.3.5l-5.4 4.5h27v-27z"/><path id="tetris_stroke_4_" class="st12" d="M549 388h30v30h-30v-30z"/><path class="st0" d="M577.5 389.5l-4.5 5.4c-.3.4-.5.8-.5 1.3v14.3c0 .6-.4 1-1 1h-14.3c-.5 0-.9.2-1.3.5l-5.4 4.5h27v-27z"/></g><g id="stars"><path id="star_a" class="st4" d="M652.6 332.5c-5.3 3.1-12.1 1.2-15.1-4.1l-1.4-2.4 1.4 2.4c3.1 5.3 1.2 12.1-4.1 15.1l-2.4 1.4 2.4-1.4c5.3-3.1 12.1-1.2 15.1 4.1l1.4 2.4-1.4-2.4c-3-5.3-1.2-12.1 4.1-15.1l2.4-1.4-2.4 1.4z" style="-webkit-animation-delay:0s;-moz-animation-delay:0s;-o-animation-delay:0s;animation-delay:0s;-webkit-animation-duration:3s;-moz-animation-duration:3s;-o-animation-duration:3s;animation-duration:3s;-webkit-animation:levitate 3s infinite ease-in-out;-moz-animation:levitate 3s infinite ease-in-out;-o-animation:levitate 3s infinite ease-in-out;animation:levitate 3s infinite ease-in-out"/><path id="star_b" class="st4" d="M503.4 73.7c-8 4.6-18.1 1.9-22.7-6.1l-2.1-3.6 2.1 3.6c4.6 8 1.9 18.1-6.1 22.7l-3.6 2.1 3.6-2.1c8-4.6 18.1-1.9 22.7 6.1l2.1 3.6-2.1-3.6c-4.6-8-1.9-18.1 6.1-22.7l3.6-2.1-3.6 2.1z" style="-webkit-animation-delay:.5s;-moz-animation-delay:.5s;-o-animation-delay:.5s;animation-delay:.5s;-webkit-animation-duration:3s;-moz-animation-duration:3s;-o-animation-duration:3s;animation-duration:3s;-webkit-animation:levitate 3s infinite ease-in-out;-moz-animation:levitate 3s infinite ease-in-out;-o-animation:levitate 3s infinite ease-in-out;animation:levitate 3s infinite ease-in-out"/><path id="star_c" class="st4" d="M330.4 335.7c-8 4.6-18.1 1.9-22.7-6.1l-2.1-3.6 2.1 3.6c4.6 8 1.9 18.1-6.1 22.7l-3.6 2.1 3.6-2.1c8-4.6 18.1-1.9 22.7 6.1l2.1 3.6-2.1-3.6c-4.6-8-1.9-18.1 6.1-22.7l3.6-2.1-3.6 2.1z" style="-webkit-animation-delay:1s;-moz-animation-delay:1s;-o-animation-delay:1s;animation-delay:1s;-webkit-animation-duration:3s;-moz-animation-duration:3s;-o-animation-duration:3s;animation-duration:3s;-webkit-animation:levitate 3s infinite ease-in-out;-moz-animation:levitate 3s infinite ease-in-out;-o-animation:levitate 3s infinite ease-in-out;animation:levitate 3s infinite ease-in-out"/><path id="star_d" class="st4" d="M135.6 176.5c-5.3 3.1-12.1 1.2-15.1-4.1l-1.4-2.4 1.4 2.4c3.1 5.3 1.2 12.1-4.1 15.1l-2.4 1.4 2.4-1.4c5.3-3.1 12.1-1.2 15.1 4.1l1.4 2.4-1.4-2.4c-3-5.3-1.2-12.1 4.1-15.1l2.4-1.4-2.4 1.4z" style="-webkit-animation-delay:1.5s;-moz-animation-delay:1.5s;-o-animation-delay:1.5s;animation-delay:1.5s;-webkit-animation-duration:3s;-moz-animation-duration:3s;-o-animation-duration:3s;animation-duration:3s;-webkit-animation:levitate 3s infinite ease-in-out;-moz-animation:levitate 3s infinite ease-in-out;-o-animation:levitate 3s infinite ease-in-out;animation:levitate 3s infinite ease-in-out"/></g><g id="moon" style="-webkit-animation-delay:.5s;-moz-animation-delay:.5s;-o-animation-delay:.5s;animation-delay:.5s;-webkit-animation-duration:3s;-moz-animation-duration:3s;-o-animation-duration:3s;animation-duration:3s;-webkit-animation:levitate 3s infinite ease-in-out;-moz-animation:levitate 3s infinite ease-in-out;-o-animation:levitate 3s infinite ease-in-out;animation:levitate 3s infinite ease-in-out"><path id="moon_body" class="st4" d="M641 34c26 0 47 21 47 47s-21 47-47 47-47-21-47-47 21-47 47-47z"/><path id="moon_shades" class="st0" d="M622.5 55.9c1.3 2.3 0 5.8-3.1 7.7-3 2-6.6 1.7-7.9-.6-1.3-2.3 0-5.8 3.1-7.7 3-2 6.5-1.7 7.9.6zm6.3 38.2c-4.1-6.1-11.6-9-16.7-6.4-5.1 2.6-5.9 9.6-1.7 15.7 4.1 6.1 11.6 9 16.7 6.4 5.1-2.6 5.8-9.6 1.7-15.7zm15.7 14.9c-3.6 0-6.5 2.2-6.5 5s2.9 5 6.5 5 6.5-2.2 6.5-5-2.9-5-6.5-5zm1.2-13.2c-2.3-1.2-5-.5-6 1.4-1 2 0 4.5 2.3 5.7 2.3 1.2 5 .5 6-1.4s0-4.5-2.3-5.7zM686.5 81c0-25.1-20.4-45.5-45.5-45.5-16.1 0-30.2 8.4-38.3 21 7.9-5.9 17.7-9.5 28.3-9.5 26 0 47 21 47 47 0 6.3-1.3 12.3-3.5 17.8 7.4-8.2 12-19 12-30.8z"/></g><g id="number_4" style="-webkit-animation-delay:0s;-moz-animation-delay:0s;-o-animation-delay:0s;animation-delay:0s;-webkit-animation-duration:3s;-moz-animation-duration:3s;-o-animation-duration:3s;animation-duration:3s;-webkit-animation:levitate 3s infinite ease-in-out;-moz-animation:levitate 3s infinite ease-in-out;-o-animation:levitate 3s infinite ease-in-out;animation:levitate 3s infinite ease-in-out"><path id="number_4_outline" class="st13" d="M379.5 235.5c0-4.9-3.9-9.1-8.7-9.1h-11.4v-72.5c0-9.1-8.5-15.7-17.6-15-6 0-11.8 3.1-15.1 8L274 226.7c-1.2 2.1-2.1 4.5-2.1 6.6 0 6.6 5 11.1 10.3 11.1H339v24.3c0 5.6 4.3 10.1 9.9 10.1 6 0 10.5-4.5 10.5-10.1v-24.3h11.4c4.8-.1 8.7-4 8.7-8.9zm-40.5-9.1h-45.5l45.5-67.8v67.8z"/><path id="number_4_inner_lines" class="st14" d="M349 158v109.2M345.9 147c-5.6 0-10.9 2.8-14 7.2l-47.1 69.5c-1.2 1.9-3.3 4.3-3.6 5.8-.8 4.6 2.3 5.5 7.3 5.5H340m19.5 0H379m-37-3l-4 7m7-7l-4 7m17-7l-4 7m7-7l-4 7"/><path id="number_4_dots" class="st9" d="M349 266c1.6 0 2.9 1.3 2.9 2.9 0 1.6-1.3 2.9-2.9 2.9-1.6 0-2.9-1.3-2.9-2.9 0-1.6 1.3-2.9 2.9-2.9zm0-110.9c1.6 0 2.9 1.3 2.9 2.9s-1.3 2.9-2.9 2.9c-1.6 0-2.9-1.3-2.9-2.9s1.3-2.9 2.9-2.9zm-4.6-10.5c1.6 0 2.9 1.3 2.9 2.9 0 1.6-1.3 2.9-2.9 2.9-1.6 0-2.9-1.3-2.9-2.9-.1-1.6 1.2-2.9 2.9-2.9z"/></g><g id="number_4_2" style="-webkit-animation-delay:1s;-moz-animation-delay:1s;-o-animation-delay:1s;animation-delay:1s;-webkit-animation-duration:3s;-moz-animation-duration:3s;-o-animation-duration:3s;animation-duration:3s;-webkit-animation:levitate 3s infinite ease-in-out;-moz-animation:levitate 3s infinite ease-in-out;-o-animation:levitate 3s infinite ease-in-out;animation:levitate 3s infinite ease-in-out"><path id="number_4_outline_2" class="st13" d="M627 235.5c0-4.9-3.9-9.1-8.7-9.1h-11.4v-72.5c0-9.1-8.5-15.7-17.6-15-6 0-11.8 3.1-15.1 8l-52.7 79.8c-1.2 2.1-2.1 4.5-2.1 6.6 0 6.6 5 11.1 10.3 11.1h56.7v24.3c0 5.6 4.3 10.1 9.9 10.1 6 0 10.5-4.5 10.5-10.1v-24.3h11.4c4.9-.1 8.8-4 8.8-8.9zm-40.5-9.1H541l45.5-67.8v67.8z"/><path id="number_4_inner_lines_2" class="st14" d="M596.5 158v109.2M593.3 147c-5.6 0-10.9 2.8-14 7.2l-47.1 69.5c-1.2 1.9-3.3 4.3-3.6 5.8-.8 4.6 2.3 5.5 7.3 5.5h51.5m19.6 0h19.5m-37-3l-4 7m7-7l-4 7m17-7l-4 7m7-7l-4 7"/><path id="number_4_dots_2" class="st9" d="M596.5 266c1.6 0 2.9 1.3 2.9 2.9 0 1.6-1.3 2.9-2.9 2.9-1.6 0-2.9-1.3-2.9-2.9 0-1.6 1.3-2.9 2.9-2.9zm0-110.9c1.6 0 2.9 1.3 2.9 2.9s-1.3 2.9-2.9 2.9c-1.6 0-2.9-1.3-2.9-2.9s1.3-2.9 2.9-2.9zm-4.7-10.5c1.6 0 2.9 1.3 2.9 2.9 0 1.6-1.3 2.9-2.9 2.9-1.6 0-2.9-1.3-2.9-2.9 0-1.6 1.3-2.9 2.9-2.9z"/></g><g id="number_0" style="-webkit-animation-delay:.5s;-moz-animation-delay:.5s;-o-animation-delay:.5s;animation-delay:.5s;-webkit-animation-duration:3s;-moz-animation-duration:3s;-o-animation-duration:3s;animation-duration:3s;-webkit-animation:levitate 3s infinite ease-in-out;-moz-animation:levitate 3s infinite ease-in-out;-o-animation:levitate 3s infinite ease-in-out;animation:levitate 3s infinite ease-in-out"><path id="number_0_outline" class="st13" d="M502 208.9c0-34-15.9-70.9-54-70.9-38.3 0-54 36.9-54 70.9s15.7 71.1 54 71.1c38.1 0 54-37.1 54-71.1zm-20.9 0c0 26.8-8.7 53-33.1 53-24.6 0-33.1-26.2-33.1-53s8.5-52.8 33.1-52.8c24.4 0 33.1 26 33.1 52.8z"/><path id="number_0_inner_lines" class="st15" d="M487.2 175.7c-6.7-16.8-19.3-29.4-39.2-29.4-32 0-45.1 32.5-45.1 62.4s13.1 62.6 45.1 62.6c31.8 0 44.1-32.6 44.1-62.6m-4.6-36.7c3 0 5.5 2.5 5.5 5.5s-2.5 5.5-5.5 5.5-5.5-2.5-5.5-5.5 2.5-5.5 5.5-5.5zm5 30c3 0 5.5 2.5 5.5 5.5s-2.5 5.5-5.5 5.5-5.5-2.5-5.5-5.5 2.5-5.5 5.5-5.5z" stroke="#89949b" stroke-linecap="round" stroke-linejoin="round" stroke-miterlimit="10"/><path id="number_0_dots" class="st9" d="M492.5 205c1.4 0 2.5 1.1 2.5 2.5s-1.1 2.5-2.5 2.5-2.5-1.1-2.5-2.5 1.1-2.5 2.5-2.5zm-5-30c1.4 0 2.5 1.1 2.5 2.5s-1.1 2.5-2.5 2.5-2.5-1.1-2.5-2.5 1.1-2.5 2.5-2.5zm-39.4-31.6c1.6 0 2.9 1.3 2.9 2.9 0 1.6-1.3 2.9-2.9 2.9-1.6 0-2.9-1.3-2.9-2.9-.1-1.6 1.2-2.9 2.9-2.9zm0 124.9c1.6 0 2.9 1.3 2.9 2.9 0 1.6-1.3 2.9-2.9 2.9-1.6 0-2.9-1.3-2.9-2.9-.1-1.6 1.2-2.9 2.9-2.9z"/></g><g id="sword" style="-webkit-animation-delay:1.5s;-moz-animation-delay:1.5s;-o-animation-delay:1.5s;animation-delay:1.5s;-webkit-animation-duration:3s;-moz-animation-duration:3s;-o-animation-duration:3s;animation-duration:3s;-webkit-animation:levitate 3s infinite ease-in-out;-moz-animation:levitate 3s infinite ease-in-out;-o-animation:levitate 3s infinite ease-in-out;animation:levitate 3s infinite ease-in-out"><path id="sword_handle" class="st4" d="M444.6 196.6l.6-.8c1.5-2 1.8-4.3 3.8-2.8l8.9 6.8c2 1.5 2.4 4.3.9 6.3l-.6.8c-1.5 2-4.3 2.4-6.3.9L443 201c-2-1.5.1-2.5 1.6-4.4z"/><path id="sword_handle_line" class="st14" d="M453.9 197c2 1.5 2.4 4.3.9 6.3l-.6.8c-1.5 2-4.3 2.4-6.3.9"/><path id="sword_hilt" class="st4" d="M432.5 197.1l10.6-13.9c1.6-2.2 4.7-2.6 6.9-.9 2.2 1.6 2.6 4.7.9 6.9l-10.6 13.9c-1.6 2.2-4.7 2.6-6.9.9-2.2-1.6-2.6-4.7-.9-6.9z"/><path id="sword_blade" class="st13" d="M437 199l9-11.7-58.7-48.4-21-2.2 5.9 17.3z"/><path id="sword_blade_shadow" class="st0" d="M436.7 197l3.6-4.7-71.3-53.8-.5-.1 5 14.6z"/></g></svg>