<svg xmlns="http://www.w3.org/2000/svg" viewBox="0 0 480 480"><path d="M216.004 232H184a7.998 7.998 0 00-8 7.996v55.84c-.016 12.668-9.799 23.179-22.434 24.102A47.332 47.332 0 00160 296c0-26.51-21.49-48-48-48s-48 21.49-48 48a47.332 47.332 0 006.434 23.938c-12.635-.923-22.418-11.434-22.434-24.102V240a7.998 7.998 0 00-7.996-8H8a7.998 7.998 0 00-8 7.996V312c.04 32.238 24.02 59.429 56 63.5V472a7.998 7.998 0 007.996 8H160a7.998 7.998 0 008-7.996V375.5c31.98-4.071 55.96-31.262 56-63.5v-72a7.998 7.998 0 00-7.996-8zM208 312c-.029 26.498-21.502 47.971-48 48a7.998 7.998 0 00-8 7.996V464H72v-96a7.998 7.998 0 00-7.996-8H64c-26.498-.029-47.971-21.502-48-48v-64h16v47.836c.024 22.172 17.992 40.14 40.164 40.164h16.055a8 8 0 004.777-14.414A31.71 31.71 0 0180 296c0-17.673 14.327-32 32-32s32 14.327 32 32a31.71 31.71 0 01-12.996 25.586A7.999 7.999 0 00135.781 336h16.055c22.172-.024 40.14-17.992 40.164-40.164V248h16v64zm256.004-80H432a7.998 7.998 0 00-8 7.996v55.84c-.016 12.668-9.799 23.179-22.434 24.102A47.332 47.332 0 00408 296c0-26.51-21.49-48-48-48s-48 21.49-48 48a47.332 47.332 0 006.434 23.938c-12.634-.922-22.418-11.434-22.434-24.102V240a7.998 7.998 0 00-7.996-8H256a7.998 7.998 0 00-8 7.996V312c.04 32.238 24.02 59.429 56 63.5V472a7.998 7.998 0 007.996 8H408a7.998 7.998 0 008-7.996V375.5c31.98-4.071 55.96-31.262 56-63.5v-72a7.998 7.998 0 00-7.996-8zM456 312c-.029 26.498-21.502 47.971-48 48a7.998 7.998 0 00-8 7.996V464h-80v-96a7.998 7.998 0 00-7.996-8H312c-26.498-.029-47.971-21.502-48-48v-64h16v47.836c.024 22.172 17.992 40.14 40.164 40.164h16.055a8 8 0 004.777-14.414A31.71 31.71 0 01328 296c0-17.673 14.327-32 32-32 17.673 0 32 14.327 32 32a31.71 31.71 0 01-12.996 25.586A7.999 7.999 0 00383.781 336h16.055c22.172-.024 40.14-17.992 40.164-40.164V248h16v64zm17.563-220.516l-11.187-2.234a104.797 104.797 0 00-1.313-4.844l7.996-7.156a8.003 8.003 0 002.02-9.094 112.175 112.175 0 00-13.726-23.5 8.029 8.029 0 00-8.883-2.781l-10.035 3.297a92.687 92.687 0 00-3.602-3.602l3.297-10.031a8.01 8.01 0 00-2.777-8.883 111.828 111.828 0 00-23.5-13.734 7.974 7.974 0 00-9.094 2.023l-7.164 7.992a93.218 93.218 0 00-4.848-1.312l-2.234-11.187A8 8 0 00380.668 0h-25.336a7.998 7.998 0 00-7.844 6.438l-2.234 11.188a95.341 95.341 0 00-4.848 1.312l-7.16-7.992a7.982 7.982 0 00-9.094-2.024 111.883 111.883 0 00-23.496 13.727 8.005 8.005 0 00-2.781 8.883l3.297 10.031a103.097 103.097 0 00-3.605 3.609l-10.035-3.297a8.024 8.024 0 00-8.879 2.781 111.62 111.62 0 00-13.727 23.5 7.995 7.995 0 002.023 9.094l7.988 7.156a94.54 94.54 0 00-1.309 4.844l-11.191 2.234A7.998 7.998 0 00256 99.328v25.344a7.998 7.998 0 006.438 7.844l11.188 2.234c.395 1.609.832 3.224 1.313 4.844l-7.996 7.156a8.012 8.012 0 00-2.02 9.102 112.33 112.33 0 0013.727 23.492 8.032 8.032 0 008.883 2.781l10.035-3.297a92.687 92.687 0 003.602 3.602l-3.297 10.031a8.007 8.007 0 002.781 8.883 112.024 112.024 0 0023.496 13.734 8.007 8.007 0 009.094-2.023l7.164-7.992c1.617.484 3.233.922 4.848 1.313l2.234 11.187a7.997 7.997 0 007.843 6.437h25.336a7.998 7.998 0 007.844-6.438l2.234-11.187a94.326 94.326 0 004.848-1.313l7.16 7.992a7.998 7.998 0 009.094 2.023 111.922 111.922 0 0023.496-13.726 7.992 7.992 0 002.781-8.875l-3.297-10.039a101.31 101.31 0 003.602-3.609l10.039 3.297a8.023 8.023 0 008.879-2.781 111.62 111.62 0 0013.727-23.5 8 8 0 00-2.02-9.094l-7.992-7.156a95.58 95.58 0 001.309-4.844l11.191-2.234a7.998 7.998 0 006.437-7.844V99.328a8 8 0 00-6.438-7.844zM464 118.109l-9.918 1.977a8 8 0 00-6.309 6.414 80.848 80.848 0 01-3.469 12.859 8 8 0 002.187 8.664l7.473 6.695a95.824 95.824 0 01-6.09 10.367l-9.41-3.086a8.017 8.017 0 00-8.598 2.43 81.132 81.132 0 01-9.438 9.43 8.001 8.001 0 00-2.434 8.602l3.09 9.414a95.912 95.912 0 01-10.371 6.094l-6.691-7.469a8.035 8.035 0 00-8.656-2.195 81.011 81.011 0 01-12.852 3.461 8.002 8.002 0 00-6.43 6.313L374.105 208h-12.211l-1.98-9.922a8.002 8.002 0 00-6.43-6.313 81.011 81.011 0 01-12.852-3.461 8.009 8.009 0 00-8.656 2.195l-6.695 7.469a96.5 96.5 0 01-10.371-6.102l3.09-9.398a8.003 8.003 0 00-2.43-8.602 81.54 81.54 0 01-9.441-9.438 8.017 8.017 0 00-8.598-2.43l-9.402 3.086a96.02 96.02 0 01-6.094-10.367l7.473-6.695a8.004 8.004 0 002.187-8.664 80.795 80.795 0 01-3.469-12.852 7.992 7.992 0 00-6.309-6.422L272 118.109V105.89l9.922-1.977a7.993 7.993 0 006.309-6.422 80.906 80.906 0 013.469-12.859 8.008 8.008 0 00-2.195-8.664l-7.469-6.687a96.945 96.945 0 016.09-10.367l9.41 3.086a8.031 8.031 0 008.598-2.43 81.32 81.32 0 019.445-9.445 8.013 8.013 0 002.426-8.602l-3.09-9.398a95.748 95.748 0 0110.371-6.094l6.691 7.469a8.001 8.001 0 008.656 2.195 81.011 81.011 0 0112.852-3.461 8.002 8.002 0 006.43-6.313l1.98-9.921h12.211l1.98 9.922a8.002 8.002 0 006.43 6.313 81.011 81.011 0 0112.852 3.461 8.044 8.044 0 008.656-2.195l6.695-7.469a96.754 96.754 0 0110.375 6.094L418 41.531a8.003 8.003 0 002.43 8.602 81.54 81.54 0 019.441 9.438 8.03 8.03 0 008.598 2.43l9.402-3.086a96.745 96.745 0 016.098 10.367l-7.477 6.695a8.004 8.004 0 00-2.187 8.664 80.901 80.901 0 013.469 12.852 7.992 7.992 0 006.309 6.422l9.918 1.977v12.217z"/><path d="M368 48c-35.346 0-64 28.654-64 64 0 35.346 28.654 64 64 64 35.346 0 64-28.654 64-64-.04-35.329-28.671-63.96-64-64zm0 112c-26.51 0-48-21.49-48-48s21.49-48 48-48 48 21.49 48 48c-.029 26.498-21.502 47.971-48 48z"/><path d="M407.155 108.42a8.003 8.003 0 00-3.576-3.576l-48-24a7.989 7.989 0 00-7.785.352 8.007 8.007 0 00-3.793 6.805v48a8.002 8.002 0 0011.578 7.156l48-24a8.004 8.004 0 003.576-10.737zM360 123.055v-22.109L382.113 112 360 123.055zM216.797 91.5l-10.41-2.188a95.878 95.878 0 00-1.324-4.906l7.996-7.156a8.003 8.003 0 002.02-9.094 112.2 112.2 0 00-13.726-23.5 8.029 8.029 0 00-8.883-2.781l-10.035 3.297a92.687 92.687 0 00-3.602-3.602l3.297-10.031a8.01 8.01 0 00-2.777-8.883 111.828 111.828 0 00-23.5-13.734 7.974 7.974 0 00-9.094 2.023l-7.164 7.992a93.218 93.218 0 00-4.848-1.312l-2.234-11.187A8 8 0 00124.668 0H99.332a7.998 7.998 0 00-7.844 6.438l-2.234 11.188a95.341 95.341 0 00-4.848 1.312l-7.16-7.992a7.982 7.982 0 00-9.094-2.024 111.883 111.883 0 00-23.496 13.727 8.005 8.005 0 00-2.781 8.883l3.297 10.031a103.097 103.097 0 00-3.605 3.609l-10.035-3.297a8.025 8.025 0 00-8.879 2.781 111.62 111.62 0 00-13.727 23.5 7.995 7.995 0 002.023 9.094l7.988 7.156a95.58 95.58 0 00-1.309 4.844l-11.19 2.234A7.998 7.998 0 000 99.328v25.344a7.998 7.998 0 006.438 7.844l11.188 2.234c.395 1.609.832 3.224 1.312 4.844l-7.996 7.156a8.012 8.012 0 00-2.02 9.102 112.33 112.33 0 0013.727 23.492 8.029 8.029 0 008.883 2.781l10.035-3.297a92.687 92.687 0 003.602 3.602l-3.297 10.031a8.007 8.007 0 002.781 8.883 112.024 112.024 0 0023.496 13.734 8.007 8.007 0 009.094-2.023l7.164-7.992c1.617.484 3.233.922 4.848 1.313l2.234 11.187A7.997 7.997 0 0099.332 224h25.336a7.998 7.998 0 007.844-6.438l2.234-11.187a94.326 94.326 0 004.848-1.313l7.16 7.992a7.998 7.998 0 009.094 2.023 111.922 111.922 0 0023.496-13.726 7.992 7.992 0 002.781-8.875l-3.297-10.039a101.31 101.31 0 003.602-3.609l10.039 3.297a8.024 8.024 0 008.879-2.781 111.62 111.62 0 0013.727-23.5 8 8 0 00-2.02-9.094l-7.992-7.156c.484-1.633.926-3.268 1.324-4.906l10.41-2.188a8 8 0 006.355-7.828V99.328a7.999 7.999 0 00-6.355-7.828zm-9.645 26.68L198 120.102a7.991 7.991 0 00-6.227 6.398 80.848 80.848 0 01-3.469 12.859 8 8 0 002.187 8.664l7.473 6.695a95.824 95.824 0 01-6.09 10.367l-9.41-3.086a8.017 8.017 0 00-8.598 2.43 81.132 81.132 0 01-9.438 9.43 8.001 8.001 0 00-2.434 8.602l3.09 9.414a95.912 95.912 0 01-10.371 6.094l-6.691-7.469a8.037 8.037 0 00-8.656-2.195 81.011 81.011 0 01-12.852 3.461 8.002 8.002 0 00-6.43 6.313L118.105 208h-12.211l-1.981-9.922a8.002 8.002 0 00-6.43-6.313 81.011 81.011 0 01-12.852-3.461 8.012 8.012 0 00-8.656 2.195l-6.695 7.469a96.5 96.5 0 01-10.371-6.102l3.09-9.398a8.003 8.003 0 00-2.43-8.602 81.54 81.54 0 01-9.441-9.438 8.017 8.017 0 00-8.598-2.43l-9.402 3.086a96.02 96.02 0 01-6.094-10.367l7.473-6.695a8.004 8.004 0 002.187-8.664 80.901 80.901 0 01-3.469-12.852 7.992 7.992 0 00-6.309-6.422L16 118.109V105.89l9.922-1.977a7.993 7.993 0 006.309-6.422A80.906 80.906 0 0135.7 84.632a8.008 8.008 0 00-2.195-8.664l-7.469-6.687a97.113 97.113 0 016.09-10.367L41.535 62a8.034 8.034 0 008.598-2.43 81.32 81.32 0 019.445-9.445 8.013 8.013 0 002.426-8.602l-3.09-9.398a95.748 95.748 0 0110.371-6.094l6.691 7.469a8.005 8.005 0 008.656 2.195 81.011 81.011 0 0112.852-3.461 8.002 8.002 0 006.43-6.313L105.895 16h12.211l1.98 9.922a8.002 8.002 0 006.43 6.313 81.011 81.011 0 0112.852 3.461 8.048 8.048 0 008.656-2.195l6.695-7.469a96.754 96.754 0 0110.375 6.094L162 41.531a8.003 8.003 0 002.43 8.602 81.54 81.54 0 019.441 9.438 8.03 8.03 0 008.598 2.43l9.402-3.086a96.745 96.745 0 016.098 10.367l-7.477 6.695a8.004 8.004 0 00-2.187 8.664 80.901 80.901 0 013.469 12.852 8 8 0 006.227 6.406l9.152 1.922v12.359z"/><path d="M112 48c-35.346 0-64 28.654-64 64 .04 35.329 28.671 63.96 64 64 35.346 0 64-28.654 64-64 0-35.346-28.654-64-64-64zm0 112c-26.51 0-48-21.49-48-48 .029-26.498 21.502-47.971 48-48 26.51 0 48 21.49 48 48s-21.49 48-48 48z"/><path d="M151.155 108.42a8.003 8.003 0 00-3.576-3.576l-48-24A8.001 8.001 0 0088 88v48a8.007 8.007 0 003.793 6.805 8.004 8.004 0 007.785.352l48-24a8.004 8.004 0 003.577-10.737zM104 123.055v-22.109L126.113 112 104 123.055zM368 432h16v16h-16zm-280 0h16v16H88z"/></svg>