<svg height="512" viewBox="0 0 64 64" width="512" xmlns="http://www.w3.org/2000/svg"><path d="M9 34h6v4h2V28h-2v4H9v-4H7v10h2z"/><path d="M11 28h2v2h-2zm0 8h2v2h-2zm24.764-20L33 14.618v-1.842l.331-.298c.432-.389.669-.914.669-1.478V9.17c0-1.14-.849-2.112-1.892-2.167A2.002 2.002 0 0030 9v2c0 .564.237 1.089.669 1.478l.331.298v1.842L28.236 16a2.232 2.232 0 00-1.003 1h9.533a2.224 2.224 0 00-1.002-1z"/><path d="M22.438 37.995l.394-2.197L21 34.522v-5.045l1.832-1.275-.394-2.197 1.073-1.074-15.333-9.47C4.787 20.33 3 26.028 3 32s1.787 11.67 5.178 16.538l15.333-9.47zM19 40H5V26h14zm7.005-17.562l2.197.394L29.478 21h5.045l1.275 1.832 2.197-.394 1.073 1.073 9.47-15.334C43.67 4.787 37.972 3 32 3S20.33 4.787 15.462 8.177l9.47 15.334zM25 18c0-1.615.897-3.067 2.342-3.789l1.513-.756A3.984 3.984 0 0128 11V9c0-1.092.454-2.15 1.247-2.902a3.963 3.963 0 012.967-1.092C34.337 5.117 36 6.946 36 9.17V11a3.99 3.99 0 01-.854 2.455l1.513.756A4.213 4.213 0 0139 18v1H25z"/><path d="M37.319 24.591l-2.432.436L33.478 23h-2.955l-1.41 2.027-2.432-.436-2.09 2.089.437 2.431L23 30.522v2.955l2.027 1.41-.437 2.432 2.09 2.09 2.432-.437L30.522 41h2.955l1.41-2.027 2.432.437 2.09-2.09-.437-2.432L41 33.478v-2.955l-2.027-1.411.437-2.431zM32 37c-2.757 0-5-2.243-5-5s2.243-5 5-5 5 2.243 5 5-2.243 5-5 5z"/><circle cx="32" cy="32" r="3"/><path d="M25 56a1 1 0 001 1h12a1 1 0 001-1v-1H25zm27-32c-3.309 0-6 2.691-6 6 0 2.88 1.953 4.343 3.245 5H51v-2.184A2.996 2.996 0 0149 30c0-1.654 1.346-3 3-3s3 1.346 3 3a2.996 2.996 0 01-2 2.816V35h1.755C56.047 34.343 58 32.88 58 30c0-3.309-2.691-6-6-6z"/><circle cx="52" cy="30" r="1"/><path d="M55.822 15.461l-15.334 9.471 1.073 1.074-.394 2.197L43 29.478v5.045l-1.832 1.275.394 2.197-1.073 1.073 15.333 9.47C59.213 43.67 61 37.972 61 32s-1.787-11.67-5.178-16.539zM56 36.608V41h-8v-4.392c-2.552-1.429-4-3.806-4-6.608 0-4.411 3.589-8 8-8s8 3.589 8 8c0 2.802-1.448 5.18-4 6.608z"/><path d="M50 37h4v2h-4zm-12.005 4.562l-2.197-.394L34.522 43h-5.045l-1.275-1.832-2.197.394-1.073-1.073-9.47 15.333A28.654 28.654 0 0027 60.556V59h-1c-1.654 0-3-1.346-3-3v-8c0-1.654 1.346-3 3-3h12c1.654 0 3 1.346 3 3v8c0 1.654-1.346 3-3 3h-1v1.557a28.682 28.682 0 0011.538-4.734l-9.47-15.333z"/><path d="M29 60.829c.992.101 1.99.171 3 .171s2.008-.07 3-.171V59h-6zM39 48a1 1 0 00-1-1H26a1 1 0 00-1 1v5h14z"/></svg>