<svg height="395pt" viewBox="1 1 395.737 395" width="395pt" xmlns="http://www.w3.org/2000/svg"><path d="M231.164 293.3a153.343 153.343 0 01-9.898-18.257 20.977 20.977 0 01-17.184 8.184H191.48a20.841 20.841 0 01-16.914-7.872 154.402 154.402 0 01-9.738 17.934A140.916 140.916 0 00198 299.137a140.835 140.835 0 0033.164-5.836zM141.43 71.082c0-39.055-31.66-70.715-70.715-70.715C31.66.367 0 32.027 0 71.082c0 39.055 31.66 70.715 70.715 70.715 39.035-.047 70.668-31.68 70.715-70.715zM99 78.156H70.715a7.075 7.075 0 01-7.074-7.074v-49.5c0-3.906 3.168-7.07 7.074-7.07s7.07 3.164 7.07 7.07v42.43H99c3.906 0 7.07 3.164 7.07 7.07s-3.164 7.074-7.07 7.074zm64.91 146.477c0 1.914-.101 3.789-.187 5.656a18.742 18.742 0 007.12 19.27 67.556 67.556 0 0111.477 12.793c4.012 5.464 5.121 6.761 9.196 6.761h12.566c4.043 0 5.156-1.297 9.191-6.761a67.903 67.903 0 0111.47-12.793c6-4.43 8.796-11.996 7.12-19.262-.09-1.848-.183-3.719-.183-5.656a51.462 51.462 0 011.414-11.141 110.501 110.501 0 001.777-32.434c-1.289-23.593-33.887-25.125-34.215-25.125h-6.031c-1.055.055-32.66 1.676-33.879 25.118a110.667 110.667 0 001.774 32.437 51.16 51.16 0 011.39 11.137zM198 350.023a116.586 116.586 0 0034.2-42.343 146.463 146.463 0 01-34.2 5.597 146.323 146.323 0 01-34.21-5.597A116.73 116.73 0 00198 350.023zM388.93 64.012h-6.246a10.544 10.544 0 01-10.082-7.512 48.404 48.404 0 00-3.536-8.59 10.517 10.517 0 011.829-12.48l4.398-4.371a7.07 7.07 0 00-4.95-12.067c-1.878 0-3.679.75-5 2.09l-4.366 4.395a10.519 10.519 0 01-12.477 1.84 48.114 48.114 0 00-8.59-3.536 10.541 10.541 0 01-7.555-10.113V7.441c0-3.906-3.164-7.074-7.07-7.074s-7.07 3.168-7.07 7.074v6.243a10.552 10.552 0 01-7.512 10.086 47.995 47.995 0 00-8.59 3.535 10.553 10.553 0 01-12.484-1.832l-4.367-4.399a7.012 7.012 0 00-5-2.086 7.072 7.072 0 00-4.953 12.063l4.402 4.37a10.53 10.53 0 011.836 12.474 48.15 48.15 0 00-3.535 8.593 10.534 10.534 0 01-10.14 7.524h-6.231a7.071 7.071 0 00-7.07 7.07 7.072 7.072 0 007.07 7.074h6.246a10.536 10.536 0 0110.082 7.508 48.032 48.032 0 003.535 8.594 10.518 10.518 0 01-1.832 12.48l-4.395 4.371a7.066 7.066 0 00-1.535 7.676 7.065 7.065 0 006.485 4.387 6.996 6.996 0 005-2.086l4.367-4.398a10.457 10.457 0 017.433-3.098c1.758.004 3.489.441 5.043 1.265a48.113 48.113 0 008.59 3.536 10.54 10.54 0 017.555 10.105v6.23c0 3.907 3.164 7.07 7.07 7.07s7.07-3.163 7.07-7.07v-6.242a10.549 10.549 0 017.512-10.086 48.114 48.114 0 008.59-3.535 10.541 10.541 0 0112.484 1.832l4.368 4.399a7.012 7.012 0 005 2.086 7.075 7.075 0 006.484-4.387 7.064 7.064 0 00-1.535-7.676l-4.399-4.37a10.53 10.53 0 01-1.836-12.477 48.114 48.114 0 003.536-8.59 10.534 10.534 0 0110.14-7.524h6.23a7.072 7.072 0 00.001-14.144zm-63.645 42.43c-19.527 0-35.355-15.833-35.355-35.36s15.828-35.355 35.355-35.355 35.36 15.828 35.36 35.355c-.024 19.52-15.84 35.336-35.36 35.36zm0 0"/><path d="M346.5 71.082c0 11.719-9.496 21.215-21.215 21.215-11.715 0-21.215-9.496-21.215-21.215 0-11.715 9.5-21.215 21.215-21.215 11.719 0 21.215 9.5 21.215 21.215zm-98.492 233.965c-2.942 11.18-12.77 33.457-45.586 59.719-.172.14-.383.168-.567.289a7.076 7.076 0 01-7.71 0c-.184-.121-.387-.153-.563-.29-32.828-26.265-42.648-48.538-45.59-59.718a67.964 67.964 0 00-37.48 17.027A52.83 52.83 0 0099 359.242c0 30.305 73.316 37.125 99 37.125s99-6.86 99-37.125a52.842 52.842 0 00-11.527-37.168 67.972 67.972 0 00-37.465-17.027zm-71.223-120.82a7.049 7.049 0 01-5-2.075L94 104.367a7.07 7.07 0 010-10 7.07 7.07 0 0110 0l77.785 77.785a7.07 7.07 0 010 10 7.049 7.049 0 01-5 2.075zm42.43 0a7.049 7.049 0 01-5-2.075 7.07 7.07 0 010-10l63.64-63.64a7.071 7.071 0 0110 10l-63.64 63.64a7.049 7.049 0 01-5 2.075zm0 0"/></svg>