<?xml version="1.0" encoding="utf-8"?>
<!-- Uploaded to SVGRepo https://www.svgrepo.com -->
<svg version="1.1" id="Layer_1" xmlns="http://www.w3.org/2000/svg" xmlns:xlink="http://www.w3.org/1999/xlink" x="0px" y="0px"
	 width="208px" height="256px" viewBox="0 0 208 256" enable-background="new 0 0 208 256" xml:space="preserve">
<path d="M205.82,196.86V2H35.8C17.53,2,2,16.72,2,35c0,0,0,184.49,0,186c0,17.87,14.42,32.19,32.08,32.9v0.1h171.74v-9.29
	c-13.23,0-23.93-10.7-23.93-23.93C181.89,207.56,192.59,196.86,205.82,196.86z M98.76,94.21H90.5V83.22h6.33
	c0,0-7.69-14.48-7.69-16.17c0-4.74,3.86-8.64,8.68-8.64c2.45,0,4.67,1.03,6.27,2.68V50.47h-5.23v-4.94h5.23v-5.64h4.96v5.64h5.24
	v4.94h-5.24v10.57c1.6-1.65,3.77-2.63,6.23-2.63c4.76,0,8.68,3.85,8.68,8.64c0,1.74-7.5,16.17-7.5,16.17h5.99v10.99h-8.07
	c-0.28,2.82-0.47,3.25-0.47,6.21c0,14.47,6.32,20.63,16.28,31.53l-3.78,12.73H86.49l-3.68-12.59c10.01-10.9,16.42-17.2,16.42-31.67
	C99.23,97.46,99.09,97.03,98.76,94.21z M78,148.49h57V160H78V148.49z M172.6,220.68c0,9.39,4.04,17.87,10.3,23.93H35.4
	c-13.23,0.1-24.03-10.7-24.03-23.93c0-12.52,9.79-22.81,22.11-23.72l149.72-0.31C176.74,202.71,172.6,211.19,172.6,220.68z"/>
</svg>
