<?xml version="1.0" encoding="iso-8859-1"?>
<!-- Generator: Adobe Illustrator 16.0.0, SVG Export Plug-In . SVG Version: 6.00 Build 0)  -->
<!DOCTYPE svg PUBLIC "-//W3C//DTD SVG 1.1//EN" "http://www.w3.org/Graphics/SVG/1.1/DTD/svg11.dtd">
<svg version="1.1" id="Capa_1" xmlns="http://www.w3.org/2000/svg" xmlns:xlink="http://www.w3.org/1999/xlink" x="0px" y="0px"
	 width="87.374px" height="87.374px" viewBox="0 0 87.374 87.374" style="enable-background:new 0 0 87.374 87.374;"
	 xml:space="preserve">
<g>
	<path d="M12.675,7.556l-4-4.037L12.227,0l4,4.037L12.675,7.556z M20.211,8.05l-3.55,3.522l4.792,4.832l3.551-3.521L20.211,8.05z
		 M73.698,28.113v9.39l-19.857-25.82L39.954,27.962L27.928,15.835l-3.551,3.52l15.852,15.988l13.411-15.72l15.885,20.656
		l-7.361-2.795l-1.775,4.674l18.312,6.953V28.113H73.698z M59.524,47.708H53.01c-1.104,0-2,0.896-2,2v35.666c0,1.104,0.896,2,2,2
		h6.515c1.104,0,2-0.896,2-2V49.708C61.524,48.604,60.629,47.708,59.524,47.708z M38.193,57.708H31.68c-1.104,0-2,0.896-2,2v25.666
		c0,1.104,0.896,2,2,2h6.513c1.105,0,2-0.896,2-2V59.708C40.193,58.604,39.298,57.708,38.193,57.708z M17.191,28.041h-6.513
		c-1.104,0-2,0.896-2,2v55.333c0,1.104,0.896,2,2,2h6.513c1.105,0,2-0.896,2-2V30.041C19.191,28.937,18.296,28.041,17.191,28.041z"
		/>
</g>
<g>
</g>
<g>
</g>
<g>
</g>
<g>
</g>
<g>
</g>
<g>
</g>
<g>
</g>
<g>
</g>
<g>
</g>
<g>
</g>
<g>
</g>
<g>
</g>
<g>
</g>
<g>
</g>
<g>
</g>
</svg>
