<?xml version="1.0" encoding="iso-8859-1"?>
<!-- Generator: Adobe Illustrator 17.1.0, SVG Export Plug-In . SVG Version: 6.00 Build 0)  -->
<!DOCTYPE svg PUBLIC "-//W3C//DTD SVG 1.1//EN" "http://www.w3.org/Graphics/SVG/1.1/DTD/svg11.dtd">
<svg version="1.1" id="Capa_1" xmlns="http://www.w3.org/2000/svg" xmlns:xlink="http://www.w3.org/1999/xlink" x="0px" y="0px"
	 viewBox="0 0 294 294" style="enable-background:new 0 0 294 294;" xml:space="preserve">
<path d="M161.667,147v2c0,8.284-6.716,15-15,15s-15-6.716-15-15v-2c0-8.284,6.716-15,15-15S161.667,138.716,161.667,147z M294,147
	c0,81.056-65.944,147-147,147S0,228.056,0,147S65.944,0,147,0S294,65.944,294,147z M161.667,30.959v14.137
	c45,6.567,80.67,42.093,87.237,86.904h14.137C256.287,79.457,214.667,37.713,161.667,30.959z M191,147c0-8.284,6.716-15,15-15
	h12.443c-5.922-28.237-27.776-50.521-56.776-56.443V88c0,8.284-6.716,15-15,15s-15-6.716-15-15V75.557
	c-28,5.922-50.189,28.207-56.11,56.443H88c8.284,0,15,6.716,15,15s-6.716,15-15,15H75.557c5.922,28.237,28.11,50.522,56.11,56.443
	V206c0-8.284,6.716-15,15-15s15,6.716,15,15v12.443c29-5.922,50.855-28.207,56.776-56.443H206C197.716,162,191,155.284,191,147z
	 M30.958,132h14.137c6.567-44.811,42.571-80.337,86.571-86.904V30.958C79.667,37.712,37.713,79.457,30.958,132z M131.667,263.042
	v-14.137c-44-6.567-80.004-42.093-86.571-86.904H30.958C37.713,214.543,79.667,256.288,131.667,263.042z M263.042,162h-14.137
	c-6.567,44.811-42.237,80.337-87.237,86.904v14.137C214.667,256.287,256.287,214.543,263.042,162z"/>
<g>
</g>
<g>
</g>
<g>
</g>
<g>
</g>
<g>
</g>
<g>
</g>
<g>
</g>
<g>
</g>
<g>
</g>
<g>
</g>
<g>
</g>
<g>
</g>
<g>
</g>
<g>
</g>
<g>
</g>
</svg>
