<?xml version="1.0"?>
<svg width="700" height="200" xmlns="http://www.w3.org/2000/svg" xmlns:svg="http://www.w3.org/2000/svg">
 <style type="text/css">.st0{fill:#1FA8D7;}
	.st1{fill:#FFFFFF;}
	.st2{opacity:4.000000e-02;stroke:#FFFFFF;stroke-miterlimit:10;}
	.st3{opacity:8.000000e-02;stroke:#FFFFFF;stroke-miterlimit:10;}
	.st4{opacity:0;stroke:#FFFFFF;stroke-miterlimit:10;}
	.st5{fill:#333333;}
	.st6{fill:#1EA7D6;}</style>

 <g class="layer">
  <title>Layer 1</title>
  <polygon class="st0" id="svg_1" points="0,150 0,50 86.6,0 173.2,50 173.2,150 86.6,200 "/>
  <polygon class="st1" id="svg_2" points="86.6,133.3 57.7,116.7 57.7,83.3 86.6,66.7 115.5,83.3 144.3,66.7 86.6,33.3 28.9,66.7 28.9,133.3   86.6,166.7 144.3,133.3 115.5,116.7 "/>
  <polygon class="st2" id="svg_3" points="0,50 86.6,100 86.6,0 "/>
  <polygon class="st2" id="svg_4" points="0,150 86.6,200 86.6,100 "/>
  <polygon class="st3" id="svg_5" points="86.6,100 173.2,150 173.2,50 "/>
  <polygon class="st4" id="svg_6" points="86.6,100 0,50 0,150 "/>
  <polygon class="st3" id="svg_7" points="173.2,150 86.6,100 86.6,200 "/>
  <polygon class="st3" id="svg_8" points="173.2,50 86.6,0 86.6,100 "/>
  <text fill="#bf0000" font-family="serif" font-size="24" id="svg_16" stroke="#000000" stroke-width="0" style="cursor: move;" text-anchor="middle" transform="matrix(5.3733, 0, 0, 6.13005, -737.023, -425.439)" x="219.633362" xml:space="preserve" y="93.983337">UET SoC</text>
 </g>
</svg>