<?xml version="1.0"?>
<svg width="173.19999999999996" height="200" xmlns="http://www.w3.org/2000/svg" xmlns:svg="http://www.w3.org/2000/svg" style="vector-effect: non-scaling-stroke;">
 <style type="text/css">.st0{fill:#1FA8D7;}
	.st1{fill:#FFFFFF;}
	.st2{opacity:4.000000e-02;stroke:#FFFFFF;stroke-miterlimit:10;}
	.st3{opacity:8.000000e-02;stroke:#FFFFFF;stroke-miterlimit:10;}
	.st4{opacity:0;stroke:#FFFFFF;stroke-miterlimit:10;}
	.st5{fill:#333333;}
	.st6{fill:#1EA7D6;}</style>
 <defs>undefinedundefined</defs>
 <g class="layer">
  <title>Layer 1</title>
  <g id="svg_6"/>
  <g id="svg_10"/>
  <g id="svg_16"/>
  <g id="svg_18"/>
  <path d="m411.98,535.06l-49.3,-49.29l21.22,-21.21l28.08,28.07l89.43,-89.44l21.22,21.22l-110.65,110.65z" fill="url(#linear-gradient)" id="svg_20" transform="translate(-152.771, 29.0993) translate(-3.76667, -244.567)"/>
  <path d="m442.66,593a129.31,129.31 0 0 1 -129.16,-129.18c0,-71.21 57.94,-129.15 129.16,-129.15a129.3,129.3 0 0 1 129.15,129.15c0,71.18 -57.94,129.18 -129.15,129.18zm0,-228.31a99.16,99.16 0 1 0 99.15,99.15a99.27,99.27 0 0 0 -99.15,-99.17l0,0.02z" fill="url(#linear-gradient-2)" id="svg_19" transform="translate(-152.771, 29.0993)"/>
  <g id="svg_43">
   <defs transform="translate(0, -1.07422) translate(-0.78125) translate(-14.6667, -10.6667) translate(-64, -28) translate(79.4492, 39.7422) scale(0.248725, 0.250515) translate(-79.4492, -39.7422) translate(3.14102, 4.28804) scale(1.0472, 1.06055) translate(-3.14102, -4.28804) translate(-0) scale(0.942144, 1) translate(0) translate(-0) scale(1.06141, 1) translate(0)">
    <style>.cls-1{fill:#737c7f}</style>
   </defs>
   <path class="cls-1" d="m77.983613,171.255924c-5.567498,3.451752 -10.189572,5.818351 -12.636153,7.007206c-9.871042,-4.792455 -55.180242,-28.799171 -55.180242,-65.775883l0,-78.642179l55.170076,-21.991959l55.180242,22.010477l0,63.075961c0.986088,-0.062961 1.978952,-0.099997 2.978595,-0.099997a49.294214,53.876226 0 0 1 7.197423,0.56665l0,-71.331279l-65.35626,-26.073323l-65.335928,26.073323l0,86.412326c0,11.56263 3.473333,22.880822 10.325117,33.639772c5.313352,8.344204 12.666651,16.362492 21.853192,23.832647c15.424985,12.544083 30.650042,19.229076 31.290491,19.506846l1.877294,0.818495l1.877294,-0.818495a139.878729,152.880782 0 0 0 15.618137,-8.410869a48.996016,53.550309 0 0 1 -4.859277,-9.799718z" fill="black" id="svg_44"/>
   <path class="cls-1" d="m74.720855,126.453547l-22.901175,0l0,-23.591905l-22.901175,0l0,-23.836343l22.901175,0l0,-22.43268l22.901175,0l0,22.43268l22.901175,0l0,23.836343l-22.901175,0l0,23.591905z" fill="black" id="svg_45"/>
   <g id="svg_48">
    <path d="m115.366839,178.389032l-17.728453,-18.255024l7.630786,-7.855327l10.097667,10.395993l32.159342,-33.124961l7.630786,7.85903l-39.790128,40.980288z" fill="#ff0000" id="svg_46"/>
    <path d="m126.399474,199.847667a46.50033,47.891198 0 0 1 -46.446389,-47.843051c0,-26.373306 20.835427,-47.83194 46.446389,-47.83194a46.496734,47.887494 0 0 1 46.442793,47.83194c0,26.362195 -20.835427,47.843051 -46.442793,47.843051zm0,-84.556796a35.658284,36.724856 0 1 0 35.654688,36.721153a35.69784,36.765596 0 0 0 -35.654688,-36.72856l0,0.007407z" fill="#0000ff" id="svg_47"/>
   </g>
  </g>
  <g id="svg_24"/>
 </g>
</svg>